<mxfile host="app.diagrams.net" agent="Mozilla/5.0 (Windows NT 10.0; Win64; x64) AppleWebKit/537.36 (KHTML, like Gecko) Chrome/135.0.0.0 Safari/537.36" version="26.2.6">
  <diagram name="Page-1" id="LJXHO2pebTDir3uBVyzq">
    <mxGraphModel dx="6996" dy="-493" grid="1" gridSize="10" guides="1" tooltips="1" connect="1" arrows="1" fold="1" page="0" pageScale="1" pageWidth="850" pageHeight="1100" math="0" shadow="1">
      <root>
        <mxCell id="0" />
        <mxCell id="1" parent="0" />
        <mxCell id="QKaa7FEPIGwUNo9bZV-P-423" value="" style="rounded=1;whiteSpace=wrap;html=1;arcSize=5;strokeWidth=5;glass=1;movable=0;resizable=0;rotatable=0;deletable=0;editable=0;locked=1;connectable=0;fontSize=11;" parent="1" vertex="1">
          <mxGeometry x="-70" y="6260" width="2520" height="1660" as="geometry" />
        </mxCell>
        <mxCell id="tovHjQSJaM1to2bCUS-M-11" value="" style="rounded=1;whiteSpace=wrap;html=1;arcSize=5;strokeWidth=5;shadow=0;glass=1;movable=1;resizable=1;rotatable=1;deletable=1;editable=1;locked=0;connectable=1;" parent="1" vertex="1">
          <mxGeometry x="-4270" y="4150" width="2060" height="3560" as="geometry" />
        </mxCell>
        <mxCell id="tovHjQSJaM1to2bCUS-M-10" value="" style="rounded=1;whiteSpace=wrap;html=1;arcSize=5;strokeWidth=5;shadow=0;glass=0;movable=0;resizable=0;rotatable=0;deletable=0;editable=0;locked=1;connectable=0;" parent="1" vertex="1">
          <mxGeometry x="-610" y="2280" width="3840" height="1990" as="geometry" />
        </mxCell>
        <mxCell id="tovHjQSJaM1to2bCUS-M-9" value="" style="rounded=1;whiteSpace=wrap;html=1;arcSize=5;strokeWidth=5;glass=1;movable=0;resizable=0;rotatable=0;deletable=0;editable=0;locked=1;connectable=0;" parent="1" vertex="1">
          <mxGeometry x="-610" y="4540" width="3600" height="990" as="geometry" />
        </mxCell>
        <mxCell id="jx9qQstsAjwb39KxPT1k-13" value="Level 0" style="text;html=1;align=center;verticalAlign=middle;whiteSpace=wrap;rounded=0;fontSize=29;fillColor=#d5e8d4;strokeColor=#82b366;" parent="1" vertex="1">
          <mxGeometry x="-3530" y="4280" width="340" height="40" as="geometry" />
        </mxCell>
        <mxCell id="jx9qQstsAjwb39KxPT1k-82" value="" style="edgeStyle=orthogonalEdgeStyle;rounded=0;orthogonalLoop=1;jettySize=auto;html=1;" parent="1" source="jx9qQstsAjwb39KxPT1k-80" target="jx9qQstsAjwb39KxPT1k-81" edge="1">
          <mxGeometry relative="1" as="geometry" />
        </mxCell>
        <mxCell id="jx9qQstsAjwb39KxPT1k-80" value="&amp;nbsp; &amp;nbsp; &amp;nbsp; &amp;nbsp; &amp;nbsp; Student" style="html=1;dashed=0;whiteSpace=wrap;shape=mxgraph.dfd.dataStoreID;align=left;spacingLeft=3;points=[[0,0],[0.5,0],[1,0],[0,0.5],[1,0.5],[0,1],[0.5,1],[1,1]];fontSize=24;" parent="1" vertex="1">
          <mxGeometry x="-3740" y="4530" width="170" height="30" as="geometry" />
        </mxCell>
        <mxCell id="jx9qQstsAjwb39KxPT1k-84" style="edgeStyle=orthogonalEdgeStyle;rounded=0;orthogonalLoop=1;jettySize=auto;html=1;" parent="1" source="jx9qQstsAjwb39KxPT1k-81" target="jx9qQstsAjwb39KxPT1k-83" edge="1">
          <mxGeometry relative="1" as="geometry" />
        </mxCell>
        <mxCell id="jx9qQstsAjwb39KxPT1k-81" value="Attendant" style="ellipse;whiteSpace=wrap;html=1;fontSize=21;align=center;dashed=0;spacingLeft=3;fillColor=#b0e3e6;strokeColor=#0e8088;" parent="1" vertex="1">
          <mxGeometry x="-3440" y="4420" width="135" height="135" as="geometry" />
        </mxCell>
        <mxCell id="jx9qQstsAjwb39KxPT1k-90" value="" style="edgeStyle=orthogonalEdgeStyle;rounded=0;orthogonalLoop=1;jettySize=auto;html=1;" parent="1" source="jx9qQstsAjwb39KxPT1k-83" target="jx9qQstsAjwb39KxPT1k-89" edge="1">
          <mxGeometry relative="1" as="geometry" />
        </mxCell>
        <mxCell id="jx9qQstsAjwb39KxPT1k-83" value="Attendant Database" style="html=1;dashed=0;whiteSpace=wrap;shape=partialRectangle;right=0;left=0;fontSize=23;fillColor=#f8cecc;gradientColor=#ea6b66;strokeColor=#b85450;" parent="1" vertex="1">
          <mxGeometry x="-3440" y="4630" width="160" height="70" as="geometry" />
        </mxCell>
        <mxCell id="jx9qQstsAjwb39KxPT1k-86" style="edgeStyle=orthogonalEdgeStyle;rounded=0;orthogonalLoop=1;jettySize=auto;html=1;" parent="1" source="jx9qQstsAjwb39KxPT1k-85" target="jx9qQstsAjwb39KxPT1k-81" edge="1">
          <mxGeometry relative="1" as="geometry" />
        </mxCell>
        <mxCell id="jx9qQstsAjwb39KxPT1k-85" value="&amp;nbsp; &amp;nbsp; &amp;nbsp; &amp;nbsp; &amp;nbsp; Teacher" style="html=1;dashed=0;whiteSpace=wrap;shape=mxgraph.dfd.dataStoreID;align=left;spacingLeft=3;points=[[0,0],[0.5,0],[1,0],[0,0.5],[1,0.5],[0,1],[0.5,1],[1,1]];fontSize=24;" parent="1" vertex="1">
          <mxGeometry x="-3090" y="4490" width="170" height="30" as="geometry" />
        </mxCell>
        <mxCell id="jx9qQstsAjwb39KxPT1k-89" value="Generate Report" style="ellipse;whiteSpace=wrap;html=1;fontSize=23;dashed=0;fillColor=#e6d0de;gradientColor=#d5739d;strokeColor=#996185;" parent="1" vertex="1">
          <mxGeometry x="-3160" y="4625" width="145" height="145" as="geometry" />
        </mxCell>
        <mxCell id="jx9qQstsAjwb39KxPT1k-91" value="Level 1" style="text;html=1;align=center;verticalAlign=middle;whiteSpace=wrap;rounded=0;fontSize=29;fillColor=#f8cecc;strokeColor=#b85450;" parent="1" vertex="1">
          <mxGeometry x="-3542.5" y="4810" width="340" height="40" as="geometry" />
        </mxCell>
        <mxCell id="jx9qQstsAjwb39KxPT1k-94" value="" style="edgeStyle=orthogonalEdgeStyle;rounded=0;orthogonalLoop=1;jettySize=auto;html=1;strokeColor=#E07A5F;fontColor=#393C56;fillColor=#F2CC8F;" parent="1" source="jx9qQstsAjwb39KxPT1k-92" target="jx9qQstsAjwb39KxPT1k-93" edge="1">
          <mxGeometry relative="1" as="geometry" />
        </mxCell>
        <mxCell id="jx9qQstsAjwb39KxPT1k-92" value="&amp;nbsp; &amp;nbsp; &amp;nbsp; &amp;nbsp; &amp;nbsp; Student" style="html=1;dashed=0;whiteSpace=wrap;shape=mxgraph.dfd.dataStoreID;align=left;spacingLeft=3;points=[[0,0],[0.5,0],[1,0],[0,0.5],[1,0.5],[0,1],[0.5,1],[1,1]];fontSize=21;" parent="1" vertex="1">
          <mxGeometry x="-3750" y="4950" width="170" height="30" as="geometry" />
        </mxCell>
        <mxCell id="jx9qQstsAjwb39KxPT1k-97" value="" style="edgeStyle=orthogonalEdgeStyle;rounded=0;orthogonalLoop=1;jettySize=auto;html=1;strokeColor=#E07A5F;fontColor=#393C56;fillColor=#F2CC8F;" parent="1" source="jx9qQstsAjwb39KxPT1k-93" target="jx9qQstsAjwb39KxPT1k-96" edge="1">
          <mxGeometry relative="1" as="geometry" />
        </mxCell>
        <mxCell id="jx9qQstsAjwb39KxPT1k-99" value="" style="edgeStyle=orthogonalEdgeStyle;rounded=0;orthogonalLoop=1;jettySize=auto;html=1;strokeColor=#E07A5F;fontColor=#393C56;fillColor=#F2CC8F;" parent="1" source="jx9qQstsAjwb39KxPT1k-93" target="jx9qQstsAjwb39KxPT1k-98" edge="1">
          <mxGeometry relative="1" as="geometry" />
        </mxCell>
        <mxCell id="jx9qQstsAjwb39KxPT1k-93" value="Attendant&amp;nbsp;&lt;div&gt;QR Code&lt;/div&gt;" style="ellipse;whiteSpace=wrap;html=1;fontSize=21;align=center;dashed=0;spacingLeft=3;fillColor=#fad7ac;strokeColor=#b46504;" parent="1" vertex="1">
          <mxGeometry x="-3455" y="4925" width="135" height="135" as="geometry" />
        </mxCell>
        <mxCell id="jx9qQstsAjwb39KxPT1k-96" value="Attendant Database" style="html=1;dashed=0;whiteSpace=wrap;shape=partialRectangle;right=0;left=0;fontSize=23;fillColor=#cdeb8b;strokeColor=#36393d;" parent="1" vertex="1">
          <mxGeometry x="-3385" y="5100" width="160" height="70" as="geometry" />
        </mxCell>
        <mxCell id="jx9qQstsAjwb39KxPT1k-98" value="Display&amp;nbsp;&lt;div&gt;Attendant&lt;/div&gt;" style="ellipse;whiteSpace=wrap;html=1;fontSize=21;dashed=0;spacingLeft=3;fillColor=#fad9d5;strokeColor=#ae4132;" parent="1" vertex="1">
          <mxGeometry x="-3212.5" y="4910" width="122.5" height="122.5" as="geometry" />
        </mxCell>
        <mxCell id="jx9qQstsAjwb39KxPT1k-100" value="" style="edgeStyle=orthogonalEdgeStyle;rounded=0;orthogonalLoop=1;jettySize=auto;html=1;strokeColor=#E07A5F;fontColor=#393C56;fillColor=#F2CC8F;" parent="1" source="jx9qQstsAjwb39KxPT1k-101" target="jx9qQstsAjwb39KxPT1k-104" edge="1">
          <mxGeometry relative="1" as="geometry" />
        </mxCell>
        <mxCell id="jx9qQstsAjwb39KxPT1k-101" value="&amp;nbsp; &amp;nbsp; &amp;nbsp; &amp;nbsp; &amp;nbsp; Student" style="html=1;dashed=0;whiteSpace=wrap;shape=mxgraph.dfd.dataStoreID;align=left;spacingLeft=3;points=[[0,0],[0.5,0],[1,0],[0,0.5],[1,0.5],[0,1],[0.5,1],[1,1]];fontSize=21;" parent="1" vertex="1">
          <mxGeometry x="-3740" y="5270" width="170" height="30" as="geometry" />
        </mxCell>
        <mxCell id="jx9qQstsAjwb39KxPT1k-103" value="" style="edgeStyle=orthogonalEdgeStyle;rounded=0;orthogonalLoop=1;jettySize=auto;html=1;strokeColor=#E07A5F;fontColor=#393C56;fillColor=#F2CC8F;" parent="1" source="jx9qQstsAjwb39KxPT1k-104" target="jx9qQstsAjwb39KxPT1k-106" edge="1">
          <mxGeometry relative="1" as="geometry" />
        </mxCell>
        <mxCell id="jx9qQstsAjwb39KxPT1k-104" value="Login" style="ellipse;whiteSpace=wrap;html=1;fontSize=21;align=center;dashed=0;spacingLeft=3;fillColor=#6d8764;fontColor=#ffffff;strokeColor=#3A5431;" parent="1" vertex="1">
          <mxGeometry x="-3445" y="5245" width="135" height="135" as="geometry" />
        </mxCell>
        <mxCell id="jx9qQstsAjwb39KxPT1k-106" value="Generate&lt;div&gt;Report&lt;/div&gt;" style="ellipse;whiteSpace=wrap;html=1;fontSize=21;dashed=0;spacingLeft=3;fillColor=#f0a30a;fontColor=#000000;strokeColor=#BD7000;" parent="1" vertex="1">
          <mxGeometry x="-3202.5" y="5230" width="122.5" height="122.5" as="geometry" />
        </mxCell>
        <mxCell id="jx9qQstsAjwb39KxPT1k-107" value="" style="edgeStyle=orthogonalEdgeStyle;rounded=0;orthogonalLoop=1;jettySize=auto;html=1;strokeColor=#E07A5F;fontColor=#393C56;fillColor=#F2CC8F;" parent="1" source="jx9qQstsAjwb39KxPT1k-108" target="jx9qQstsAjwb39KxPT1k-110" edge="1">
          <mxGeometry relative="1" as="geometry" />
        </mxCell>
        <mxCell id="jx9qQstsAjwb39KxPT1k-108" value="&amp;nbsp; &amp;nbsp; &amp;nbsp; &amp;nbsp; &amp;nbsp; Teacher" style="html=1;dashed=0;whiteSpace=wrap;shape=mxgraph.dfd.dataStoreID;align=left;spacingLeft=3;points=[[0,0],[0.5,0],[1,0],[0,0.5],[1,0.5],[0,1],[0.5,1],[1,1]];fontSize=21;" parent="1" vertex="1">
          <mxGeometry x="-3740" y="5460" width="170" height="30" as="geometry" />
        </mxCell>
        <mxCell id="jx9qQstsAjwb39KxPT1k-109" value="" style="edgeStyle=orthogonalEdgeStyle;rounded=0;orthogonalLoop=1;jettySize=auto;html=1;strokeColor=#E07A5F;fontColor=#393C56;fillColor=#F2CC8F;" parent="1" source="jx9qQstsAjwb39KxPT1k-110" target="jx9qQstsAjwb39KxPT1k-111" edge="1">
          <mxGeometry relative="1" as="geometry" />
        </mxCell>
        <mxCell id="jx9qQstsAjwb39KxPT1k-110" value="Login" style="ellipse;whiteSpace=wrap;html=1;fontSize=21;align=center;dashed=0;spacingLeft=3;fillColor=#6d8764;fontColor=#ffffff;strokeColor=#3A5431;" parent="1" vertex="1">
          <mxGeometry x="-3445" y="5435" width="135" height="135" as="geometry" />
        </mxCell>
        <mxCell id="jx9qQstsAjwb39KxPT1k-111" value="Generate&lt;div&gt;Report&lt;/div&gt;" style="ellipse;whiteSpace=wrap;html=1;fontSize=21;dashed=0;spacingLeft=3;fillColor=#f0a30a;fontColor=#000000;strokeColor=#BD7000;" parent="1" vertex="1">
          <mxGeometry x="-3202.5" y="5420" width="122.5" height="122.5" as="geometry" />
        </mxCell>
        <mxCell id="jx9qQstsAjwb39KxPT1k-112" value="" style="edgeStyle=orthogonalEdgeStyle;rounded=0;orthogonalLoop=1;jettySize=auto;html=1;strokeColor=#E07A5F;fontColor=#393C56;fillColor=#F2CC8F;" parent="1" source="jx9qQstsAjwb39KxPT1k-113" target="jx9qQstsAjwb39KxPT1k-115" edge="1">
          <mxGeometry relative="1" as="geometry" />
        </mxCell>
        <mxCell id="jx9qQstsAjwb39KxPT1k-113" value="&amp;nbsp; &amp;nbsp; &amp;nbsp; &amp;nbsp; &amp;nbsp; Teacher" style="html=1;dashed=0;whiteSpace=wrap;shape=mxgraph.dfd.dataStoreID;align=left;spacingLeft=3;points=[[0,0],[0.5,0],[1,0],[0,0.5],[1,0.5],[0,1],[0.5,1],[1,1]];fontSize=21;" parent="1" vertex="1">
          <mxGeometry x="-3740" y="5660" width="170" height="30" as="geometry" />
        </mxCell>
        <mxCell id="jx9qQstsAjwb39KxPT1k-114" value="" style="edgeStyle=orthogonalEdgeStyle;rounded=0;orthogonalLoop=1;jettySize=auto;html=1;strokeColor=#E07A5F;fontColor=#393C56;fillColor=#F2CC8F;" parent="1" source="jx9qQstsAjwb39KxPT1k-115" target="jx9qQstsAjwb39KxPT1k-116" edge="1">
          <mxGeometry relative="1" as="geometry" />
        </mxCell>
        <mxCell id="jx9qQstsAjwb39KxPT1k-115" value="Login" style="ellipse;whiteSpace=wrap;html=1;fontSize=21;align=center;dashed=0;spacingLeft=3;fillColor=#6d8764;fontColor=#ffffff;strokeColor=#3A5431;" parent="1" vertex="1">
          <mxGeometry x="-3445" y="5635" width="135" height="135" as="geometry" />
        </mxCell>
        <mxCell id="jx9qQstsAjwb39KxPT1k-116" value="Modify Attendant" style="ellipse;whiteSpace=wrap;html=1;fontSize=21;dashed=0;spacingLeft=3;fillColor=#f0a30a;fontColor=#000000;strokeColor=#BD7000;" parent="1" vertex="1">
          <mxGeometry x="-3202.5" y="5620" width="122.5" height="122.5" as="geometry" />
        </mxCell>
        <mxCell id="jx9qQstsAjwb39KxPT1k-335" value="Attendant" style="html=1;dashed=0;whiteSpace=wrap;strokeColor=#82b366;fillColor=#d5e8d4;fontSize=30;" parent="1" vertex="1">
          <mxGeometry x="430" y="3810" width="170" height="90" as="geometry" />
        </mxCell>
        <mxCell id="jx9qQstsAjwb39KxPT1k-339" value="&lt;span style=&quot;border-bottom: 1px dotted&quot;&gt;Time&lt;/span&gt;" style="ellipse;whiteSpace=wrap;html=1;align=center;strokeColor=#82b366;fillColor=#d5e8d4;fontSize=21;" parent="1" vertex="1">
          <mxGeometry x="245" y="3948" width="160" height="70" as="geometry" />
        </mxCell>
        <mxCell id="jx9qQstsAjwb39KxPT1k-340" value="&lt;span style=&quot;border-bottom: 1px dotted&quot;&gt;Date&lt;/span&gt;" style="ellipse;whiteSpace=wrap;html=1;align=center;strokeColor=#82b366;fillColor=#d5e8d4;fontSize=21;" parent="1" vertex="1">
          <mxGeometry x="440" y="3960" width="160" height="70" as="geometry" />
        </mxCell>
        <mxCell id="jx9qQstsAjwb39KxPT1k-344" value="" style="endArrow=none;html=1;rounded=0;strokeColor=#82b366;fontColor=#393C56;fillColor=#d5e8d4;entryX=0.5;entryY=1;entryDx=0;entryDy=0;" parent="1" source="jx9qQstsAjwb39KxPT1k-335" target="Hj1mn6U415a4xgY-r41a-99" edge="1">
          <mxGeometry width="50" height="50" relative="1" as="geometry">
            <mxPoint x="960" y="3960" as="sourcePoint" />
            <mxPoint x="-212.5" y="3605" as="targetPoint" />
          </mxGeometry>
        </mxCell>
        <mxCell id="jx9qQstsAjwb39KxPT1k-347" value="" style="endArrow=none;html=1;rounded=0;strokeColor=#82b366;fontColor=#393C56;fillColor=#d5e8d4;entryX=1;entryY=0;entryDx=0;entryDy=0;exitX=0;exitY=1;exitDx=0;exitDy=0;" parent="1" source="jx9qQstsAjwb39KxPT1k-335" target="jx9qQstsAjwb39KxPT1k-339" edge="1">
          <mxGeometry width="50" height="50" relative="1" as="geometry">
            <mxPoint x="113" y="3439" as="sourcePoint" />
            <mxPoint x="-149" y="3296" as="targetPoint" />
          </mxGeometry>
        </mxCell>
        <mxCell id="jx9qQstsAjwb39KxPT1k-348" value="" style="endArrow=none;html=1;rounded=0;strokeColor=#82b366;fontColor=#393C56;fillColor=#d5e8d4;entryX=0.543;entryY=0.044;entryDx=0;entryDy=0;exitX=0.5;exitY=1;exitDx=0;exitDy=0;entryPerimeter=0;" parent="1" source="jx9qQstsAjwb39KxPT1k-335" target="jx9qQstsAjwb39KxPT1k-340" edge="1">
          <mxGeometry width="50" height="50" relative="1" as="geometry">
            <mxPoint y="3470" as="sourcePoint" />
            <mxPoint x="-140" y="3395" as="targetPoint" />
          </mxGeometry>
        </mxCell>
        <mxCell id="jx9qQstsAjwb39KxPT1k-349" value="name" style="ellipse;whiteSpace=wrap;html=1;align=center;fontSize=21;fillColor=#bac8d3;strokeColor=#23445d;" parent="1" vertex="1">
          <mxGeometry x="960" y="3179" width="160" height="70" as="geometry" />
        </mxCell>
        <mxCell id="jx9qQstsAjwb39KxPT1k-350" value="" style="endArrow=none;html=1;rounded=0;strokeColor=#23445d;fontColor=#393C56;fillColor=#bac8d3;entryX=0;entryY=0.5;entryDx=0;entryDy=0;exitX=1;exitY=0.5;exitDx=0;exitDy=0;" parent="1" source="jx9qQstsAjwb39KxPT1k-381" target="jx9qQstsAjwb39KxPT1k-349" edge="1">
          <mxGeometry width="50" height="50" relative="1" as="geometry">
            <mxPoint x="20" y="3242.500000000001" as="sourcePoint" />
            <mxPoint x="-209" y="3325.5" as="targetPoint" />
          </mxGeometry>
        </mxCell>
        <mxCell id="jx9qQstsAjwb39KxPT1k-351" value="first_name&lt;span style=&quot;color: rgba(0, 0, 0, 0); font-family: monospace; font-size: 0px; text-align: start; text-wrap-mode: nowrap;&quot;&gt;%3CmxGraphModel%3E%3Croot%3E%3CmxCell%20id%3D%220%22%2F%3E%3CmxCell%20id%3D%221%22%20parent%3D%220%22%2F%3E%3CmxCell%20id%3D%222%22%20value%3D%22name%22%20style%3D%22ellipse%3BwhiteSpace%3Dwrap%3Bhtml%3D1%3Balign%3Dcenter%3BstrokeColor%3D%23E07A5F%3BfontColor%3D%23393C56%3BfillColor%3D%23F2CC8F%3BfontSize%3D21%3B%22%20vertex%3D%221%22%20parent%3D%221%22%3E%3CmxGeometry%20x%3D%22588.75%22%20y%3D%223560%22%20width%3D%22160%22%20height%3D%2270%22%20as%3D%22geometry%22%2F%3E%3C%2FmxCell%3E%3C%2Froot%3E%3C%2FmxGraphModel%3E&lt;/span&gt;" style="ellipse;whiteSpace=wrap;html=1;align=center;fontSize=21;" parent="1" vertex="1">
          <mxGeometry x="980" y="3279" width="160" height="70" as="geometry" />
        </mxCell>
        <mxCell id="jx9qQstsAjwb39KxPT1k-352" value="last_name" style="ellipse;whiteSpace=wrap;html=1;align=center;fontSize=21;" parent="1" vertex="1">
          <mxGeometry x="1170" y="3189" width="160" height="70" as="geometry" />
        </mxCell>
        <mxCell id="jx9qQstsAjwb39KxPT1k-353" value="" style="endArrow=none;html=1;rounded=0;fontColor=#393C56;entryX=-0.006;entryY=0.568;entryDx=0;entryDy=0;entryPerimeter=0;exitX=0.966;exitY=0.63;exitDx=0;exitDy=0;exitPerimeter=0;" parent="1" source="jx9qQstsAjwb39KxPT1k-349" target="jx9qQstsAjwb39KxPT1k-352" edge="1">
          <mxGeometry width="50" height="50" relative="1" as="geometry">
            <mxPoint x="-40" y="3259" as="sourcePoint" />
            <mxPoint x="-101" y="3179" as="targetPoint" />
          </mxGeometry>
        </mxCell>
        <mxCell id="jx9qQstsAjwb39KxPT1k-354" value="" style="endArrow=none;html=1;rounded=0;fontColor=#393C56;exitX=0.5;exitY=1;exitDx=0;exitDy=0;entryX=0.381;entryY=-0.037;entryDx=0;entryDy=0;entryPerimeter=0;" parent="1" source="jx9qQstsAjwb39KxPT1k-349" target="jx9qQstsAjwb39KxPT1k-351" edge="1">
          <mxGeometry width="50" height="50" relative="1" as="geometry">
            <mxPoint x="-101" y="3109" as="sourcePoint" />
            <mxPoint x="1040" y="3279" as="targetPoint" />
          </mxGeometry>
        </mxCell>
        <mxCell id="jx9qQstsAjwb39KxPT1k-357" value="dob" style="ellipse;whiteSpace=wrap;html=1;align=center;strokeColor=#23445d;fillColor=#bac8d3;fontSize=21;" parent="1" vertex="1">
          <mxGeometry x="800" y="3297.5" width="160" height="70" as="geometry" />
        </mxCell>
        <mxCell id="jx9qQstsAjwb39KxPT1k-358" value="" style="endArrow=none;html=1;rounded=0;strokeColor=#23445d;fontColor=#393C56;fillColor=#bac8d3;entryX=0;entryY=0;entryDx=0;entryDy=0;exitX=1;exitY=1;exitDx=0;exitDy=0;" parent="1" source="jx9qQstsAjwb39KxPT1k-381" target="jx9qQstsAjwb39KxPT1k-357" edge="1">
          <mxGeometry width="50" height="50" relative="1" as="geometry">
            <mxPoint x="20" y="3242.5" as="sourcePoint" />
            <mxPoint x="-31" y="3172.5" as="targetPoint" />
          </mxGeometry>
        </mxCell>
        <mxCell id="jx9qQstsAjwb39KxPT1k-360" value="" style="endArrow=none;html=1;rounded=0;strokeColor=#E07A5F;fontColor=#393C56;fillColor=#F2CC8F;exitX=1;exitY=0.25;exitDx=0;exitDy=0;entryX=0;entryY=0.5;entryDx=0;entryDy=0;" parent="1" source="jx9qQstsAjwb39KxPT1k-381" target="Hj1mn6U415a4xgY-r41a-81" edge="1">
          <mxGeometry width="50" height="50" relative="1" as="geometry">
            <mxPoint x="-132.499999999985" y="3350.000000000001" as="sourcePoint" />
            <mxPoint x="1540.5" y="3128" as="targetPoint" />
          </mxGeometry>
        </mxCell>
        <mxCell id="jx9qQstsAjwb39KxPT1k-361" value="phone" style="ellipse;whiteSpace=wrap;html=1;align=center;strokeColor=#23445d;fillColor=#bac8d3;fontSize=21;" parent="1" vertex="1">
          <mxGeometry x="640" y="3337.5" width="160" height="70" as="geometry" />
        </mxCell>
        <mxCell id="jx9qQstsAjwb39KxPT1k-362" value="" style="endArrow=none;html=1;rounded=0;strokeColor=#23445d;fontColor=#393C56;fillColor=#bac8d3;entryX=0.274;entryY=0.065;entryDx=0;entryDy=0;exitX=0.75;exitY=1;exitDx=0;exitDy=0;entryPerimeter=0;" parent="1" source="jx9qQstsAjwb39KxPT1k-381" target="jx9qQstsAjwb39KxPT1k-361" edge="1">
          <mxGeometry width="50" height="50" relative="1" as="geometry">
            <mxPoint x="77.93103448274678" y="3301.6379310344782" as="sourcePoint" />
            <mxPoint x="183" y="3282.5" as="targetPoint" />
          </mxGeometry>
        </mxCell>
        <mxCell id="jx9qQstsAjwb39KxPT1k-367" value="" style="endArrow=none;html=1;rounded=0;strokeColor=#36393d;fontColor=#393C56;fillColor=#ffff88;entryX=0.5;entryY=1;entryDx=0;entryDy=0;" parent="1" source="jx9qQstsAjwb39KxPT1k-382" target="Hj1mn6U415a4xgY-r41a-87" edge="1">
          <mxGeometry width="50" height="50" relative="1" as="geometry">
            <mxPoint x="472.5" y="2725" as="sourcePoint" />
            <mxPoint x="1365.5" y="2900" as="targetPoint" />
          </mxGeometry>
        </mxCell>
        <mxCell id="jx9qQstsAjwb39KxPT1k-368" value="" style="endArrow=none;html=1;rounded=0;strokeColor=#36393d;fontColor=#393C56;fillColor=#ffff88;exitX=1;exitY=0;exitDx=0;exitDy=0;entryX=0;entryY=1;entryDx=0;entryDy=0;" parent="1" source="jx9qQstsAjwb39KxPT1k-382" target="Hj1mn6U415a4xgY-r41a-89" edge="1">
          <mxGeometry width="50" height="50" relative="1" as="geometry">
            <mxPoint x="682.5" y="2745" as="sourcePoint" />
            <mxPoint x="1315.5" y="2735" as="targetPoint" />
          </mxGeometry>
        </mxCell>
        <mxCell id="jx9qQstsAjwb39KxPT1k-370" value="" style="endArrow=none;html=1;rounded=0;strokeColor=#36393d;fontColor=#393C56;fillColor=#ffff88;entryX=1;entryY=1;entryDx=0;entryDy=0;exitX=0;exitY=0;exitDx=0;exitDy=0;" parent="1" source="jx9qQstsAjwb39KxPT1k-382" target="Hj1mn6U415a4xgY-r41a-85" edge="1">
          <mxGeometry width="50" height="50" relative="1" as="geometry">
            <mxPoint x="695.5" y="2715" as="sourcePoint" />
            <mxPoint x="1065.4999999999927" y="2960" as="targetPoint" />
          </mxGeometry>
        </mxCell>
        <mxCell id="jx9qQstsAjwb39KxPT1k-371" value="name" style="ellipse;whiteSpace=wrap;html=1;align=center;strokeColor=#36393d;fillColor=#cce5ff;fontSize=21;" parent="1" vertex="1">
          <mxGeometry x="2632.5" y="2955" width="160" height="70" as="geometry" />
        </mxCell>
        <mxCell id="jx9qQstsAjwb39KxPT1k-372" value="code" style="ellipse;whiteSpace=wrap;html=1;align=center;strokeColor=#36393d;fillColor=#cce5ff;fontSize=21;" parent="1" vertex="1">
          <mxGeometry x="2712.5" y="3085" width="160" height="70" as="geometry" />
        </mxCell>
        <mxCell id="jx9qQstsAjwb39KxPT1k-373" value="" style="endArrow=none;html=1;rounded=0;strokeColor=#36393d;fontColor=#393C56;fillColor=#cce5ff;entryX=0.231;entryY=0.973;entryDx=0;entryDy=0;exitX=1;exitY=0;exitDx=0;exitDy=0;entryPerimeter=0;" parent="1" source="jx9qQstsAjwb39KxPT1k-384" target="jx9qQstsAjwb39KxPT1k-371" edge="1">
          <mxGeometry width="50" height="50" relative="1" as="geometry">
            <mxPoint x="682.5" y="2695" as="sourcePoint" />
            <mxPoint x="805.5" y="2590" as="targetPoint" />
          </mxGeometry>
        </mxCell>
        <mxCell id="jx9qQstsAjwb39KxPT1k-374" value="" style="endArrow=none;html=1;rounded=0;strokeColor=#36393d;fontColor=#393C56;fillColor=#cce5ff;exitX=1;exitY=0.5;exitDx=0;exitDy=0;" parent="1" source="jx9qQstsAjwb39KxPT1k-384" target="jx9qQstsAjwb39KxPT1k-372" edge="1">
          <mxGeometry width="50" height="50" relative="1" as="geometry">
            <mxPoint x="925.5" y="2555" as="sourcePoint" />
            <mxPoint x="1025.5" y="2460" as="targetPoint" />
          </mxGeometry>
        </mxCell>
        <mxCell id="jx9qQstsAjwb39KxPT1k-381" value="Users" style="html=1;dashed=0;whiteSpace=wrap;strokeColor=#23445d;fillColor=#bac8d3;fontSize=30;" parent="1" vertex="1">
          <mxGeometry x="542.5" y="3122.5" width="170" height="90" as="geometry" />
        </mxCell>
        <mxCell id="jx9qQstsAjwb39KxPT1k-384" value="province" style="html=1;dashed=0;whiteSpace=wrap;strokeColor=#36393d;fillColor=#cce5ff;fontSize=30;" parent="1" vertex="1">
          <mxGeometry x="2462.5" y="3075" width="170" height="90" as="geometry" />
        </mxCell>
        <mxCell id="Hj1mn6U415a4xgY-r41a-5" value="gender" style="ellipse;whiteSpace=wrap;html=1;align=center;strokeColor=#23445d;fillColor=#bac8d3;fontSize=21;" parent="1" vertex="1">
          <mxGeometry x="697.5" y="2952.5" width="160" height="70" as="geometry" />
        </mxCell>
        <mxCell id="Hj1mn6U415a4xgY-r41a-6" value="email" style="ellipse;whiteSpace=wrap;html=1;align=center;strokeColor=#23445d;fillColor=#bac8d3;fontSize=21;" parent="1" vertex="1">
          <mxGeometry x="775" y="3027.5" width="160" height="70" as="geometry" />
        </mxCell>
        <mxCell id="Hj1mn6U415a4xgY-r41a-8" value="" style="endArrow=none;html=1;rounded=0;strokeColor=#23445d;fontColor=#393C56;fillColor=#bac8d3;entryX=0.281;entryY=0.964;entryDx=0;entryDy=0;exitX=1;exitY=0;exitDx=0;exitDy=0;entryPerimeter=0;" parent="1" source="jx9qQstsAjwb39KxPT1k-381" target="Hj1mn6U415a4xgY-r41a-6" edge="1">
          <mxGeometry width="50" height="50" relative="1" as="geometry">
            <mxPoint x="31.25" y="3170" as="sourcePoint" />
            <mxPoint x="-55.75" y="3089" as="targetPoint" />
          </mxGeometry>
        </mxCell>
        <mxCell id="Hj1mn6U415a4xgY-r41a-9" value="" style="endArrow=none;html=1;rounded=0;strokeColor=#23445d;fontColor=#393C56;fillColor=#bac8d3;entryX=0.875;entryY=0;entryDx=0;entryDy=0;exitX=0;exitY=1;exitDx=0;exitDy=0;entryPerimeter=0;" parent="1" source="Hj1mn6U415a4xgY-r41a-5" target="jx9qQstsAjwb39KxPT1k-381" edge="1">
          <mxGeometry width="50" height="50" relative="1" as="geometry">
            <mxPoint x="130" y="3132.5" as="sourcePoint" />
            <mxPoint x="43" y="3051.5" as="targetPoint" />
          </mxGeometry>
        </mxCell>
        <mxCell id="Hj1mn6U415a4xgY-r41a-10" value="#Home" style="ellipse;whiteSpace=wrap;html=1;align=center;strokeColor=#36393d;fillColor=#ffff88;fontSize=21;" parent="1" vertex="1">
          <mxGeometry x="2115" y="3260" width="160" height="70" as="geometry" />
        </mxCell>
        <mxCell id="Hj1mn6U415a4xgY-r41a-11" value="Street" style="ellipse;whiteSpace=wrap;html=1;align=center;strokeColor=#36393d;fillColor=#ffff88;fontSize=21;" parent="1" vertex="1">
          <mxGeometry x="2197.5" y="3190" width="160" height="70" as="geometry" />
        </mxCell>
        <mxCell id="Hj1mn6U415a4xgY-r41a-12" value="" style="endArrow=none;html=1;rounded=0;strokeColor=#36393d;fontColor=#393C56;fillColor=#ffff88;entryX=0.84;entryY=1;entryDx=0;entryDy=0;exitX=0.5;exitY=0;exitDx=0;exitDy=0;entryPerimeter=0;" parent="1" source="Hj1mn6U415a4xgY-r41a-10" target="jx9qQstsAjwb39KxPT1k-382" edge="1">
          <mxGeometry width="50" height="50" relative="1" as="geometry">
            <mxPoint x="1408.5" y="2655" as="sourcePoint" />
            <mxPoint x="1195.5" y="2710" as="targetPoint" />
          </mxGeometry>
        </mxCell>
        <mxCell id="Hj1mn6U415a4xgY-r41a-13" value="" style="endArrow=none;html=1;rounded=0;strokeColor=#36393d;fontColor=#393C56;fillColor=#ffff88;exitX=0;exitY=0;exitDx=0;exitDy=0;entryX=1;entryY=1;entryDx=0;entryDy=0;" parent="1" source="Hj1mn6U415a4xgY-r41a-11" target="jx9qQstsAjwb39KxPT1k-382" edge="1">
          <mxGeometry width="50" height="50" relative="1" as="geometry">
            <mxPoint x="1245.5" y="2525" as="sourcePoint" />
            <mxPoint x="1105.5" y="2655" as="targetPoint" />
          </mxGeometry>
        </mxCell>
        <mxCell id="Hj1mn6U415a4xgY-r41a-14" value="code" style="ellipse;whiteSpace=wrap;html=1;align=center;strokeColor=#36393d;fillColor=#ffcccc;fontSize=21;" parent="1" vertex="1">
          <mxGeometry x="2412.5" y="2645" width="160" height="70" as="geometry" />
        </mxCell>
        <mxCell id="Hj1mn6U415a4xgY-r41a-15" value="name" style="ellipse;whiteSpace=wrap;html=1;align=center;strokeColor=#36393d;fillColor=#ffcccc;fontSize=21;" parent="1" vertex="1">
          <mxGeometry x="2512.5" y="2755" width="160" height="70" as="geometry" />
        </mxCell>
        <mxCell id="Hj1mn6U415a4xgY-r41a-16" value="" style="endArrow=none;html=1;rounded=0;entryX=0.436;entryY=0.997;entryDx=0;entryDy=0;exitX=1;exitY=0.25;exitDx=0;exitDy=0;entryPerimeter=0;fillColor=#ffff88;strokeColor=#36393d;" parent="1" source="Hj1mn6U415a4xgY-r41a-20" target="Hj1mn6U415a4xgY-r41a-14" edge="1">
          <mxGeometry relative="1" as="geometry">
            <mxPoint x="1625.5" y="2785" as="sourcePoint" />
            <mxPoint x="1665.5" y="2895" as="targetPoint" />
          </mxGeometry>
        </mxCell>
        <mxCell id="Hj1mn6U415a4xgY-r41a-18" value="" style="endArrow=none;html=1;rounded=0;entryX=0;entryY=0.5;entryDx=0;entryDy=0;exitX=1;exitY=0.5;exitDx=0;exitDy=0;fillColor=#ffcccc;strokeColor=#36393d;" parent="1" source="Hj1mn6U415a4xgY-r41a-20" target="Hj1mn6U415a4xgY-r41a-15" edge="1">
          <mxGeometry relative="1" as="geometry">
            <mxPoint x="1645.5" y="2845" as="sourcePoint" />
            <mxPoint x="1765.5" y="2820" as="targetPoint" />
          </mxGeometry>
        </mxCell>
        <mxCell id="Hj1mn6U415a4xgY-r41a-20" value="District" style="html=1;dashed=0;whiteSpace=wrap;strokeColor=#36393d;fillColor=#ffcccc;fontSize=30;" parent="1" vertex="1">
          <mxGeometry x="2242.5" y="2745" width="170" height="90" as="geometry" />
        </mxCell>
        <mxCell id="Hj1mn6U415a4xgY-r41a-21" value="Commune" style="html=1;dashed=0;whiteSpace=wrap;strokeColor=#36393d;fillColor=#ffcc99;fontSize=30;" parent="1" vertex="1">
          <mxGeometry x="1932.5" y="2685" width="170" height="90" as="geometry" />
        </mxCell>
        <mxCell id="Hj1mn6U415a4xgY-r41a-22" value="village" style="html=1;dashed=0;whiteSpace=wrap;strokeColor=#36393d;fillColor=#cdeb8b;fontSize=30;" parent="1" vertex="1">
          <mxGeometry x="1582.5" y="2725" width="170" height="90" as="geometry" />
        </mxCell>
        <mxCell id="Hj1mn6U415a4xgY-r41a-23" value="name" style="ellipse;whiteSpace=wrap;html=1;align=center;strokeColor=#36393d;fillColor=#ffcc99;fontSize=21;" parent="1" vertex="1">
          <mxGeometry x="1825.5" y="2555" width="160" height="70" as="geometry" />
        </mxCell>
        <mxCell id="Hj1mn6U415a4xgY-r41a-24" value="code" style="ellipse;whiteSpace=wrap;html=1;align=center;strokeColor=#36393d;fillColor=#ffcc99;fontSize=21;" parent="1" vertex="1">
          <mxGeometry x="2002.5" y="2565" width="160" height="70" as="geometry" />
        </mxCell>
        <mxCell id="Hj1mn6U415a4xgY-r41a-25" value="name" style="ellipse;whiteSpace=wrap;html=1;align=center;strokeColor=#36393d;fillColor=#cdeb8b;fontSize=21;" parent="1" vertex="1">
          <mxGeometry x="1587.5" y="2605" width="160" height="70" as="geometry" />
        </mxCell>
        <mxCell id="Hj1mn6U415a4xgY-r41a-26" value="code" style="ellipse;whiteSpace=wrap;html=1;align=center;strokeColor=#36393d;fillColor=#cdeb8b;fontSize=21;" parent="1" vertex="1">
          <mxGeometry x="1362.5" y="2735" width="160" height="70" as="geometry" />
        </mxCell>
        <mxCell id="Hj1mn6U415a4xgY-r41a-27" value="" style="endArrow=none;html=1;rounded=0;entryX=0.5;entryY=1;entryDx=0;entryDy=0;exitX=0.75;exitY=0;exitDx=0;exitDy=0;fillColor=#ffcc99;strokeColor=#36393d;" parent="1" source="Hj1mn6U415a4xgY-r41a-21" target="Hj1mn6U415a4xgY-r41a-24" edge="1">
          <mxGeometry relative="1" as="geometry">
            <mxPoint x="1655.5" y="2835" as="sourcePoint" />
            <mxPoint x="1748.5" y="2910" as="targetPoint" />
          </mxGeometry>
        </mxCell>
        <mxCell id="Hj1mn6U415a4xgY-r41a-29" value="" style="endArrow=none;html=1;rounded=0;entryX=0.5;entryY=1;entryDx=0;entryDy=0;exitX=0.108;exitY=0.014;exitDx=0;exitDy=0;exitPerimeter=0;fillColor=#ffcc99;strokeColor=#36393d;" parent="1" source="Hj1mn6U415a4xgY-r41a-21" target="Hj1mn6U415a4xgY-r41a-23" edge="1">
          <mxGeometry relative="1" as="geometry">
            <mxPoint x="1525.5" y="2965" as="sourcePoint" />
            <mxPoint x="1615.5" y="3065" as="targetPoint" />
          </mxGeometry>
        </mxCell>
        <mxCell id="Hj1mn6U415a4xgY-r41a-31" value="" style="endArrow=none;html=1;rounded=0;entryX=1;entryY=0.5;entryDx=0;entryDy=0;exitX=0;exitY=0.5;exitDx=0;exitDy=0;fillColor=#cdeb8b;strokeColor=#36393d;" parent="1" source="Hj1mn6U415a4xgY-r41a-22" target="Hj1mn6U415a4xgY-r41a-26" edge="1">
          <mxGeometry relative="1" as="geometry">
            <mxPoint x="1440.5" y="2965" as="sourcePoint" />
            <mxPoint x="1435.5" y="3075" as="targetPoint" />
          </mxGeometry>
        </mxCell>
        <mxCell id="Hj1mn6U415a4xgY-r41a-33" value="" style="endArrow=none;html=1;rounded=0;entryX=0.5;entryY=1;entryDx=0;entryDy=0;exitX=0.5;exitY=0;exitDx=0;exitDy=0;fillColor=#cdeb8b;strokeColor=#36393d;" parent="1" source="Hj1mn6U415a4xgY-r41a-22" target="Hj1mn6U415a4xgY-r41a-25" edge="1">
          <mxGeometry relative="1" as="geometry">
            <mxPoint x="1239.5" y="3015" as="sourcePoint" />
            <mxPoint x="1265.5" y="3085" as="targetPoint" />
          </mxGeometry>
        </mxCell>
        <mxCell id="Hj1mn6U415a4xgY-r41a-38" value="name" style="ellipse;whiteSpace=wrap;html=1;align=center;strokeColor=#b46504;fillColor=#fad7ac;fontSize=21;" parent="1" vertex="1">
          <mxGeometry x="-278.75" y="3006.5" width="160" height="70" as="geometry" />
        </mxCell>
        <mxCell id="Hj1mn6U415a4xgY-r41a-39" value="" style="endArrow=none;html=1;rounded=0;strokeColor=#b46504;fontColor=#393C56;fillColor=#fad7ac;entryX=1;entryY=1;entryDx=0;entryDy=0;" parent="1" source="Hj1mn6U415a4xgY-r41a-43" target="Hj1mn6U415a4xgY-r41a-38" edge="1">
          <mxGeometry width="50" height="50" relative="1" as="geometry">
            <mxPoint x="-578.75" y="3086.5" as="sourcePoint" />
            <mxPoint x="-294.75" y="3096.5" as="targetPoint" />
          </mxGeometry>
        </mxCell>
        <mxCell id="Hj1mn6U415a4xgY-r41a-43" value="subject" style="html=1;dashed=0;whiteSpace=wrap;strokeColor=#b46504;fillColor=#fad7ac;fontSize=30;" parent="1" vertex="1">
          <mxGeometry x="-118.75" y="3126.5" width="170" height="90" as="geometry" />
        </mxCell>
        <mxCell id="Hj1mn6U415a4xgY-r41a-81" value="" style="rhombus;whiteSpace=wrap;html=1;fillColor=#ffff88;strokeColor=#36393d;" parent="1" vertex="1">
          <mxGeometry x="1320" y="3110" width="70" height="70" as="geometry" />
        </mxCell>
        <mxCell id="Hj1mn6U415a4xgY-r41a-82" value="" style="endArrow=none;html=1;rounded=0;strokeColor=#36393d;fontColor=#393C56;fillColor=#ffff88;entryX=0;entryY=0.5;entryDx=0;entryDy=0;exitX=1;exitY=0.5;exitDx=0;exitDy=0;" parent="1" source="Hj1mn6U415a4xgY-r41a-81" target="jx9qQstsAjwb39KxPT1k-382" edge="1">
          <mxGeometry width="50" height="50" relative="1" as="geometry">
            <mxPoint x="-1544.5" y="2765" as="sourcePoint" />
            <mxPoint x="-1464.5" y="2830" as="targetPoint" />
          </mxGeometry>
        </mxCell>
        <mxCell id="Hj1mn6U415a4xgY-r41a-85" value="" style="rhombus;whiteSpace=wrap;html=1;fillColor=#cdeb8b;strokeColor=#36393d;" parent="1" vertex="1">
          <mxGeometry x="1772.5" y="2895" width="70" height="70" as="geometry" />
        </mxCell>
        <mxCell id="Hj1mn6U415a4xgY-r41a-86" value="" style="endArrow=none;html=1;rounded=0;strokeColor=#36393d;fontColor=#393C56;fillColor=#cdeb8b;entryX=0;entryY=0;entryDx=0;entryDy=0;" parent="1" source="Hj1mn6U415a4xgY-r41a-22" target="Hj1mn6U415a4xgY-r41a-85" edge="1">
          <mxGeometry width="50" height="50" relative="1" as="geometry">
            <mxPoint x="1153.5" y="2755" as="sourcePoint" />
            <mxPoint x="1100.5" y="2805" as="targetPoint" />
          </mxGeometry>
        </mxCell>
        <mxCell id="Hj1mn6U415a4xgY-r41a-87" value="" style="rhombus;whiteSpace=wrap;html=1;fillColor=#ffcc99;strokeColor=#36393d;" parent="1" vertex="1">
          <mxGeometry x="1985.5" y="2905" width="70" height="70" as="geometry" />
        </mxCell>
        <mxCell id="Hj1mn6U415a4xgY-r41a-88" value="" style="endArrow=none;html=1;rounded=0;strokeColor=#36393d;fontColor=#393C56;fillColor=#ffcc99;entryX=0.5;entryY=1;entryDx=0;entryDy=0;exitX=0.5;exitY=0;exitDx=0;exitDy=0;" parent="1" source="Hj1mn6U415a4xgY-r41a-87" target="Hj1mn6U415a4xgY-r41a-21" edge="1">
          <mxGeometry width="50" height="50" relative="1" as="geometry">
            <mxPoint x="1195.5" y="2755" as="sourcePoint" />
            <mxPoint x="1280.5" y="2785" as="targetPoint" />
          </mxGeometry>
        </mxCell>
        <mxCell id="Hj1mn6U415a4xgY-r41a-89" value="" style="rhombus;whiteSpace=wrap;html=1;fillColor=#ffcccc;strokeColor=#36393d;" parent="1" vertex="1">
          <mxGeometry x="2197.5" y="2920" width="70" height="70" as="geometry" />
        </mxCell>
        <mxCell id="Hj1mn6U415a4xgY-r41a-90" value="" style="endArrow=none;html=1;rounded=0;strokeColor=#36393d;fontColor=#393C56;fillColor=#ffcccc;exitX=1;exitY=0;exitDx=0;exitDy=0;entryX=0.5;entryY=1;entryDx=0;entryDy=0;" parent="1" source="Hj1mn6U415a4xgY-r41a-89" target="Hj1mn6U415a4xgY-r41a-20" edge="1">
          <mxGeometry width="50" height="50" relative="1" as="geometry">
            <mxPoint x="1195.5" y="2710" as="sourcePoint" />
            <mxPoint x="1325.5" y="2750" as="targetPoint" />
          </mxGeometry>
        </mxCell>
        <mxCell id="Hj1mn6U415a4xgY-r41a-93" value="userID" style="ellipse;whiteSpace=wrap;html=1;align=center;strokeColor=#23445d;fillColor=#bac8d3;fontSize=21;fontStyle=4" parent="1" vertex="1">
          <mxGeometry x="460" y="3332.5" width="160" height="70" as="geometry" />
        </mxCell>
        <mxCell id="Hj1mn6U415a4xgY-r41a-94" value="DistrictID" style="ellipse;whiteSpace=wrap;html=1;align=center;strokeColor=#b85450;fillColor=#f8cecc;fontSize=21;fontStyle=4;" parent="1" vertex="1">
          <mxGeometry x="1710" y="3345" width="160" height="70" as="geometry" />
        </mxCell>
        <mxCell id="Hj1mn6U415a4xgY-r41a-95" value="" style="endArrow=none;html=1;rounded=0;strokeColor=#36393d;fontColor=#393C56;fillColor=#ffff88;exitX=0.688;exitY=0;exitDx=0;exitDy=0;entryX=0;entryY=1;entryDx=0;entryDy=0;exitPerimeter=0;" parent="1" source="Hj1mn6U415a4xgY-r41a-94" target="jx9qQstsAjwb39KxPT1k-382" edge="1">
          <mxGeometry width="50" height="50" relative="1" as="geometry">
            <mxPoint x="1085.5" y="2545" as="sourcePoint" />
            <mxPoint x="1115.5" y="2665" as="targetPoint" />
          </mxGeometry>
        </mxCell>
        <mxCell id="Hj1mn6U415a4xgY-r41a-96" value="" style="endArrow=none;html=1;rounded=0;strokeColor=#23445d;fontColor=#393C56;fillColor=#bac8d3;entryX=0.5;entryY=0;entryDx=0;entryDy=0;exitX=0.191;exitY=1.018;exitDx=0;exitDy=0;exitPerimeter=0;" parent="1" source="jx9qQstsAjwb39KxPT1k-381" target="Hj1mn6U415a4xgY-r41a-93" edge="1">
          <mxGeometry width="50" height="50" relative="1" as="geometry">
            <mxPoint x="358" y="3302.5" as="sourcePoint" />
            <mxPoint x="338" y="3487.5" as="targetPoint" />
          </mxGeometry>
        </mxCell>
        <mxCell id="Hj1mn6U415a4xgY-r41a-97" value="ProvinceID" style="ellipse;whiteSpace=wrap;html=1;align=center;strokeColor=#36393d;fillColor=#cce5ff;fontSize=21;fontStyle=4;" parent="1" vertex="1">
          <mxGeometry x="2602.5" y="3205" width="165" height="70" as="geometry" />
        </mxCell>
        <mxCell id="Hj1mn6U415a4xgY-r41a-98" value="" style="endArrow=none;html=1;rounded=0;strokeColor=#36393d;fontColor=#393C56;fillColor=#cce5ff;exitX=1;exitY=1;exitDx=0;exitDy=0;" parent="1" source="jx9qQstsAjwb39KxPT1k-384" target="Hj1mn6U415a4xgY-r41a-97" edge="1">
          <mxGeometry width="50" height="50" relative="1" as="geometry">
            <mxPoint x="1450.5" y="2565" as="sourcePoint" />
            <mxPoint x="1445.5" y="2495" as="targetPoint" />
          </mxGeometry>
        </mxCell>
        <mxCell id="Hj1mn6U415a4xgY-r41a-99" value="" style="rhombus;whiteSpace=wrap;html=1;strokeColor=#23445d;fillColor=#bac8d3;" parent="1" vertex="1">
          <mxGeometry x="498.75" y="3500" width="60" height="60" as="geometry" />
        </mxCell>
        <mxCell id="Hj1mn6U415a4xgY-r41a-100" value="" style="endArrow=none;html=1;rounded=0;strokeColor=#23445d;fontColor=#393C56;fillColor=#bac8d3;exitX=0.5;exitY=0;exitDx=0;exitDy=0;entryX=0.5;entryY=1;entryDx=0;entryDy=0;" parent="1" source="Hj1mn6U415a4xgY-r41a-99" target="jx9qQstsAjwb39KxPT1k-381" edge="1">
          <mxGeometry width="50" height="50" relative="1" as="geometry">
            <mxPoint x="-113.75" y="3915" as="sourcePoint" />
            <mxPoint x="-68.75" y="3705" as="targetPoint" />
          </mxGeometry>
        </mxCell>
        <mxCell id="jx9qQstsAjwb39KxPT1k-382" value="address" style="html=1;dashed=0;whiteSpace=wrap;strokeColor=#36393d;fillColor=#ffff88;fontSize=30;" parent="1" vertex="1">
          <mxGeometry x="1945" y="3085" width="170" height="90" as="geometry" />
        </mxCell>
        <mxCell id="Hj1mn6U415a4xgY-r41a-102" value="" style="rhombus;whiteSpace=wrap;html=1;fillColor=#cce5ff;strokeColor=#36393d;" parent="1" vertex="1">
          <mxGeometry x="2252.5" y="3095" width="70" height="70" as="geometry" />
        </mxCell>
        <mxCell id="Hj1mn6U415a4xgY-r41a-103" value="" style="endArrow=none;html=1;rounded=0;strokeColor=#36393d;fontColor=#393C56;fillColor=#ffff88;exitX=0;exitY=0.5;exitDx=0;exitDy=0;entryX=1;entryY=0.5;entryDx=0;entryDy=0;" parent="1" source="Hj1mn6U415a4xgY-r41a-102" target="jx9qQstsAjwb39KxPT1k-382" edge="1">
          <mxGeometry width="50" height="50" relative="1" as="geometry">
            <mxPoint x="1895.5" y="2503" as="sourcePoint" />
            <mxPoint x="1795.5" y="2480" as="targetPoint" />
          </mxGeometry>
        </mxCell>
        <mxCell id="Hj1mn6U415a4xgY-r41a-110" value="" style="endArrow=none;html=1;rounded=0;strokeColor=#36393d;fontColor=#393C56;fillColor=#cce5ff;exitX=0.028;exitY=0.646;exitDx=0;exitDy=0;entryX=1;entryY=0.5;entryDx=0;entryDy=0;exitPerimeter=0;" parent="1" source="jx9qQstsAjwb39KxPT1k-384" target="Hj1mn6U415a4xgY-r41a-102" edge="1">
          <mxGeometry width="50" height="50" relative="1" as="geometry">
            <mxPoint x="2287.5" y="2890" as="sourcePoint" />
            <mxPoint x="1997.5" y="3110" as="targetPoint" />
          </mxGeometry>
        </mxCell>
        <mxCell id="Hj1mn6U415a4xgY-r41a-186" value="SubjectID" style="ellipse;whiteSpace=wrap;html=1;align=center;strokeColor=#b46504;fillColor=#fad7ac;fontSize=21;fontStyle=4" parent="1" vertex="1">
          <mxGeometry x="-300" y="3246.5" width="160" height="70" as="geometry" />
        </mxCell>
        <mxCell id="Hj1mn6U415a4xgY-r41a-187" value="" style="endArrow=none;html=1;rounded=0;strokeColor=#b46504;fontColor=#393C56;fillColor=#fad7ac;exitX=0;exitY=1;exitDx=0;exitDy=0;entryX=1;entryY=0;entryDx=0;entryDy=0;" parent="1" source="Hj1mn6U415a4xgY-r41a-43" target="Hj1mn6U415a4xgY-r41a-186" edge="1">
          <mxGeometry width="50" height="50" relative="1" as="geometry">
            <mxPoint x="-160.75" y="3396.5" as="sourcePoint" />
            <mxPoint x="-209.75" y="3305.5" as="targetPoint" />
          </mxGeometry>
        </mxCell>
        <mxCell id="DgJ0uSwoCzX6uS-96wbA-1" value="" style="rhombus;whiteSpace=wrap;html=1;strokeColor=#d79b00;fillColor=#ffe6cc;" parent="1" vertex="1">
          <mxGeometry x="178.75" y="3145" width="60" height="60" as="geometry" />
        </mxCell>
        <mxCell id="DgJ0uSwoCzX6uS-96wbA-2" value="" style="endArrow=none;html=1;rounded=0;strokeColor=#E07A5F;fontColor=#393C56;fillColor=#F2CC8F;entryX=0.012;entryY=0.622;entryDx=0;entryDy=0;entryPerimeter=0;exitX=1;exitY=0.5;exitDx=0;exitDy=0;" parent="1" source="DgJ0uSwoCzX6uS-96wbA-1" target="jx9qQstsAjwb39KxPT1k-381" edge="1">
          <mxGeometry width="50" height="50" relative="1" as="geometry">
            <mxPoint x="161.25" y="3265" as="sourcePoint" />
            <mxPoint x="300.25" y="3205" as="targetPoint" />
          </mxGeometry>
        </mxCell>
        <mxCell id="DgJ0uSwoCzX6uS-96wbA-3" value="" style="endArrow=none;html=1;rounded=0;strokeColor=#E07A5F;fontColor=#393C56;fillColor=#F2CC8F;exitX=1;exitY=0.5;exitDx=0;exitDy=0;entryX=0;entryY=0.5;entryDx=0;entryDy=0;" parent="1" source="Hj1mn6U415a4xgY-r41a-43" target="DgJ0uSwoCzX6uS-96wbA-1" edge="1">
          <mxGeometry width="50" height="50" relative="1" as="geometry">
            <mxPoint x="-572.75" y="3705" as="sourcePoint" />
            <mxPoint x="-827.75" y="3395" as="targetPoint" />
          </mxGeometry>
        </mxCell>
        <mxCell id="DgJ0uSwoCzX6uS-96wbA-22" value="&lt;h1 style=&quot;margin-top: 0px;&quot;&gt;IQ: information quality&lt;/h1&gt;&lt;div&gt;1. teacher can record attendant, update attendant, and generate report&lt;/div&gt;&lt;div&gt;2. student can record attendant, view attendant and gerate report&lt;/div&gt;" style="text;html=1;whiteSpace=wrap;overflow=hidden;rounded=0;" parent="1" vertex="1">
          <mxGeometry x="-2760" y="4490" width="390" height="90" as="geometry" />
        </mxCell>
        <mxCell id="DgJ0uSwoCzX6uS-96wbA-26" value="&lt;h1 style=&quot;margin-top: 0px;&quot;&gt;Function 1: Generate Report&lt;/h1&gt;&lt;p&gt;&lt;font style=&quot;font-size: 15px;&quot;&gt;allow teacher and student generate attendant report when loginto system&lt;/font&gt;&lt;/p&gt;" style="text;html=1;whiteSpace=wrap;overflow=hidden;rounded=0;" parent="1" vertex="1">
          <mxGeometry x="-2960" y="5260" width="560" height="120" as="geometry" />
        </mxCell>
        <mxCell id="DgJ0uSwoCzX6uS-96wbA-27" value="&lt;h1 style=&quot;margin-top: 0px;&quot;&gt;Function 2: Modify Attendant&lt;/h1&gt;&lt;p&gt;&lt;font style=&quot;font-size: 15px;&quot;&gt;allow teacher to update attendant of any student after login&lt;/font&gt;&lt;/p&gt;" style="text;html=1;whiteSpace=wrap;overflow=hidden;rounded=0;" parent="1" vertex="1">
          <mxGeometry x="-2960" y="5620" width="560" height="120" as="geometry" />
        </mxCell>
        <mxCell id="DgJ0uSwoCzX6uS-96wbA-31" value="&lt;h1 style=&quot;margin-top: 0px;&quot;&gt;assignment&lt;/h1&gt;&lt;p&gt;&lt;font style=&quot;font-size: 15px;&quot;&gt;iq: problem and solution(student and teacher)&lt;/font&gt;&lt;/p&gt;&lt;p&gt;&lt;font style=&quot;font-size: 15px;&quot;&gt;update table and relationship&lt;/font&gt;&lt;/p&gt;&lt;p&gt;&lt;font style=&quot;font-size: 15px;&quot;&gt;make table concept&lt;/font&gt;&lt;/p&gt;&lt;p&gt;&lt;font style=&quot;font-size: 15px;&quot;&gt;database concetp&lt;/font&gt;&lt;/p&gt;&lt;p&gt;&lt;font style=&quot;font-size: 15px;&quot;&gt;and data dictionary (table name, type, isze,pk, fk, desc)&lt;/font&gt;&lt;/p&gt;" style="text;html=1;whiteSpace=wrap;overflow=hidden;rounded=0;" parent="1" vertex="1">
          <mxGeometry x="-2950" y="4980" width="560" height="120" as="geometry" />
        </mxCell>
        <mxCell id="b-CalwdEkTTM2Hsq9Z3J-1" value="StudentID" style="ellipse;whiteSpace=wrap;html=1;align=center;strokeColor=#23445d;fillColor=#bac8d3;fontSize=21;fontStyle=4" parent="1" vertex="1">
          <mxGeometry x="652.4999999999999" y="3961.5" width="160" height="70" as="geometry" />
        </mxCell>
        <mxCell id="b-CalwdEkTTM2Hsq9Z3J-2" value="" style="endArrow=none;html=1;rounded=0;strokeColor=#23445d;fontColor=#393C56;fillColor=#bac8d3;entryX=0.5;entryY=0;entryDx=0;entryDy=0;" parent="1" source="jx9qQstsAjwb39KxPT1k-335" target="b-CalwdEkTTM2Hsq9Z3J-1" edge="1">
          <mxGeometry width="50" height="50" relative="1" as="geometry">
            <mxPoint x="859.4999999999999" y="3478.5" as="sourcePoint" />
            <mxPoint x="623" y="3751.5" as="targetPoint" />
          </mxGeometry>
        </mxCell>
        <mxCell id="b-CalwdEkTTM2Hsq9Z3J-46" value="ProvinceID" style="ellipse;whiteSpace=wrap;html=1;align=center;strokeColor=#36393d;fillColor=#cce5ff;fontSize=21;fontStyle=4;" parent="1" vertex="1">
          <mxGeometry x="1700" y="3200" width="165" height="70" as="geometry" />
        </mxCell>
        <mxCell id="b-CalwdEkTTM2Hsq9Z3J-47" value="" style="endArrow=none;html=1;rounded=0;strokeColor=#36393d;fontColor=#393C56;fillColor=#cce5ff;exitX=0;exitY=0.75;exitDx=0;exitDy=0;entryX=0.934;entryY=0.32;entryDx=0;entryDy=0;entryPerimeter=0;" parent="1" source="jx9qQstsAjwb39KxPT1k-382" target="b-CalwdEkTTM2Hsq9Z3J-46" edge="1">
          <mxGeometry width="50" height="50" relative="1" as="geometry">
            <mxPoint x="1778" y="3155" as="sourcePoint" />
            <mxPoint x="590.5" y="2485" as="targetPoint" />
          </mxGeometry>
        </mxCell>
        <mxCell id="QKaa7FEPIGwUNo9bZV-P-1" value="Level 2" style="text;html=1;align=center;verticalAlign=middle;whiteSpace=wrap;rounded=0;fontSize=29;fillColor=#f8cecc;strokeColor=#b85450;" parent="1" vertex="1">
          <mxGeometry x="-3547.5" y="6100" width="340" height="40" as="geometry" />
        </mxCell>
        <mxCell id="QKaa7FEPIGwUNo9bZV-P-2" value="TeachID&lt;div&gt;(userId)&lt;/div&gt;" style="ellipse;whiteSpace=wrap;html=1;align=center;strokeColor=#0e8088;fillColor=#b0e3e6;fontSize=21;fontStyle=4" parent="1" vertex="1">
          <mxGeometry x="-11.25" y="3276.5" width="160" height="70" as="geometry" />
        </mxCell>
        <mxCell id="QKaa7FEPIGwUNo9bZV-P-3" value="" style="endArrow=none;html=1;rounded=0;strokeColor=#0e8088;fontColor=#393C56;fillColor=#b0e3e6;exitX=0.803;exitY=0.966;exitDx=0;exitDy=0;exitPerimeter=0;" parent="1" source="Hj1mn6U415a4xgY-r41a-43" target="QKaa7FEPIGwUNo9bZV-P-2" edge="1">
          <mxGeometry width="50" height="50" relative="1" as="geometry">
            <mxPoint x="-10.75" y="3126.5" as="sourcePoint" />
            <mxPoint x="32.75" y="3027.5" as="targetPoint" />
          </mxGeometry>
        </mxCell>
        <mxCell id="QKaa7FEPIGwUNo9bZV-P-4" value="" style="endArrow=none;html=1;rounded=0;strokeColor=#ae4132;fontColor=#393C56;fillColor=#fad9d5;exitX=0.693;exitY=0.012;exitDx=0;exitDy=0;exitPerimeter=0;entryX=0.5;entryY=1;entryDx=0;entryDy=0;" parent="1" source="Hj1mn6U415a4xgY-r41a-43" target="XgW9YFQhOkf5y9MLVBpn-7" edge="1">
          <mxGeometry width="50" height="50" relative="1" as="geometry">
            <mxPoint x="-423.25" y="3726.5" as="sourcePoint" />
            <mxPoint x="18.75" y="2866.5" as="targetPoint" />
          </mxGeometry>
        </mxCell>
        <mxCell id="QKaa7FEPIGwUNo9bZV-P-17" value="CommunID" style="ellipse;whiteSpace=wrap;html=1;align=center;strokeColor=#b46504;fillColor=#fad7ac;fontSize=21;fontStyle=4;" parent="1" vertex="1">
          <mxGeometry x="1870" y="3410" width="160" height="70" as="geometry" />
        </mxCell>
        <mxCell id="QKaa7FEPIGwUNo9bZV-P-18" value="" style="endArrow=none;html=1;rounded=0;strokeColor=#36393d;fontColor=#393C56;fillColor=#ffff88;exitX=0.5;exitY=0;exitDx=0;exitDy=0;entryX=0.25;entryY=1;entryDx=0;entryDy=0;" parent="1" source="QKaa7FEPIGwUNo9bZV-P-17" target="jx9qQstsAjwb39KxPT1k-382" edge="1">
          <mxGeometry width="50" height="50" relative="1" as="geometry">
            <mxPoint x="1932.5" y="3277.5" as="sourcePoint" />
            <mxPoint x="2007.5" y="3212.5" as="targetPoint" />
          </mxGeometry>
        </mxCell>
        <mxCell id="QKaa7FEPIGwUNo9bZV-P-19" value="VillageID" style="ellipse;whiteSpace=wrap;html=1;align=center;strokeColor=#36393d;fillColor=#cdeb8b;fontSize=21;fontStyle=4;" parent="1" vertex="1">
          <mxGeometry x="2030" y="3360" width="160" height="70" as="geometry" />
        </mxCell>
        <mxCell id="QKaa7FEPIGwUNo9bZV-P-20" value="" style="endArrow=none;html=1;rounded=0;strokeColor=#36393d;fontColor=#393C56;fillColor=#ffff88;exitX=0.5;exitY=0;exitDx=0;exitDy=0;entryX=0.5;entryY=1;entryDx=0;entryDy=0;" parent="1" source="QKaa7FEPIGwUNo9bZV-P-19" target="jx9qQstsAjwb39KxPT1k-382" edge="1">
          <mxGeometry width="50" height="50" relative="1" as="geometry">
            <mxPoint x="2092.5" y="3340.5" as="sourcePoint" />
            <mxPoint x="2129" y="3235" as="targetPoint" />
          </mxGeometry>
        </mxCell>
        <mxCell id="QKaa7FEPIGwUNo9bZV-P-21" value="&lt;u&gt;AddressID&lt;/u&gt;" style="ellipse;whiteSpace=wrap;html=1;align=center;strokeColor=#23445d;fillColor=#bac8d3;fontSize=21;" parent="1" vertex="1">
          <mxGeometry x="640" y="2847.5" width="160" height="70" as="geometry" />
        </mxCell>
        <mxCell id="QKaa7FEPIGwUNo9bZV-P-22" value="" style="endArrow=none;html=1;rounded=0;strokeColor=#23445d;fontColor=#393C56;fillColor=#bac8d3;entryX=0.604;entryY=0.02;entryDx=0;entryDy=0;exitX=0;exitY=1;exitDx=0;exitDy=0;entryPerimeter=0;" parent="1" source="QKaa7FEPIGwUNo9bZV-P-21" target="jx9qQstsAjwb39KxPT1k-381" edge="1">
          <mxGeometry width="50" height="50" relative="1" as="geometry">
            <mxPoint x="108.5" y="2987.5" as="sourcePoint" />
            <mxPoint x="670" y="2977.5" as="targetPoint" />
          </mxGeometry>
        </mxCell>
        <mxCell id="QKaa7FEPIGwUNo9bZV-P-84" value="Subject" style="shape=table;startSize=30;container=1;collapsible=1;childLayout=tableLayout;fixedRows=1;rowLines=0;fontStyle=1;align=center;resizeLast=1;html=1;fontSize=24;rounded=1;fillColor=#ffe6cc;strokeColor=#d79b00;" parent="1" vertex="1">
          <mxGeometry x="-312.38" y="4910" width="280" height="170" as="geometry">
            <mxRectangle x="-1300" y="2560" width="100" height="40" as="alternateBounds" />
          </mxGeometry>
        </mxCell>
        <mxCell id="QKaa7FEPIGwUNo9bZV-P-85" value="" style="shape=tableRow;horizontal=0;startSize=0;swimlaneHead=0;swimlaneBody=0;fillColor=none;collapsible=0;dropTarget=0;points=[[0,0.5],[1,0.5]];portConstraint=eastwest;top=0;left=0;right=0;bottom=1;fontSize=24;strokeColor=#000000;" parent="QKaa7FEPIGwUNo9bZV-P-84" vertex="1">
          <mxGeometry y="30" width="280" height="50" as="geometry" />
        </mxCell>
        <mxCell id="QKaa7FEPIGwUNo9bZV-P-86" value="PK" style="shape=partialRectangle;connectable=0;fillColor=none;top=0;left=0;bottom=0;right=0;fontStyle=1;overflow=hidden;whiteSpace=wrap;html=1;fontSize=24;strokeColor=#000000;" parent="QKaa7FEPIGwUNo9bZV-P-85" vertex="1">
          <mxGeometry width="40" height="50" as="geometry">
            <mxRectangle width="40" height="50" as="alternateBounds" />
          </mxGeometry>
        </mxCell>
        <mxCell id="QKaa7FEPIGwUNo9bZV-P-87" value="SubjectID" style="shape=partialRectangle;connectable=0;fillColor=none;top=0;left=0;bottom=0;right=0;align=left;spacingLeft=6;fontStyle=5;overflow=hidden;whiteSpace=wrap;html=1;fontSize=24;strokeColor=#000000;" parent="QKaa7FEPIGwUNo9bZV-P-85" vertex="1">
          <mxGeometry x="40" width="240" height="50" as="geometry">
            <mxRectangle width="240" height="50" as="alternateBounds" />
          </mxGeometry>
        </mxCell>
        <mxCell id="QKaa7FEPIGwUNo9bZV-P-91" value="" style="shape=tableRow;horizontal=0;startSize=0;swimlaneHead=0;swimlaneBody=0;fillColor=none;collapsible=0;dropTarget=0;points=[[0,0.5],[1,0.5]];portConstraint=eastwest;top=0;left=0;right=0;bottom=0;fontSize=24;strokeColor=#000000;" parent="QKaa7FEPIGwUNo9bZV-P-84" vertex="1">
          <mxGeometry y="80" width="280" height="30" as="geometry" />
        </mxCell>
        <mxCell id="QKaa7FEPIGwUNo9bZV-P-92" value="" style="shape=partialRectangle;connectable=0;fillColor=none;top=0;left=0;bottom=0;right=0;editable=1;overflow=hidden;whiteSpace=wrap;html=1;fontSize=24;strokeColor=#000000;" parent="QKaa7FEPIGwUNo9bZV-P-91" vertex="1">
          <mxGeometry width="40" height="30" as="geometry">
            <mxRectangle width="40" height="30" as="alternateBounds" />
          </mxGeometry>
        </mxCell>
        <mxCell id="QKaa7FEPIGwUNo9bZV-P-93" value="TeacherID" style="shape=partialRectangle;connectable=0;fillColor=none;top=0;left=0;bottom=0;right=0;align=left;spacingLeft=6;overflow=hidden;whiteSpace=wrap;html=1;fontSize=24;strokeColor=#000000;" parent="QKaa7FEPIGwUNo9bZV-P-91" vertex="1">
          <mxGeometry x="40" width="240" height="30" as="geometry">
            <mxRectangle width="240" height="30" as="alternateBounds" />
          </mxGeometry>
        </mxCell>
        <mxCell id="QKaa7FEPIGwUNo9bZV-P-100" value="" style="shape=tableRow;horizontal=0;startSize=0;swimlaneHead=0;swimlaneBody=0;fillColor=none;collapsible=0;dropTarget=0;points=[[0,0.5],[1,0.5]];portConstraint=eastwest;top=0;left=0;right=0;bottom=0;fontSize=24;strokeColor=#000000;" parent="QKaa7FEPIGwUNo9bZV-P-84" vertex="1">
          <mxGeometry y="110" width="280" height="30" as="geometry" />
        </mxCell>
        <mxCell id="QKaa7FEPIGwUNo9bZV-P-101" value="" style="shape=partialRectangle;connectable=0;fillColor=none;top=0;left=0;bottom=0;right=0;editable=1;overflow=hidden;whiteSpace=wrap;html=1;fontSize=24;strokeColor=#000000;" parent="QKaa7FEPIGwUNo9bZV-P-100" vertex="1">
          <mxGeometry width="40" height="30" as="geometry">
            <mxRectangle width="40" height="30" as="alternateBounds" />
          </mxGeometry>
        </mxCell>
        <mxCell id="QKaa7FEPIGwUNo9bZV-P-102" value="Name" style="shape=partialRectangle;connectable=0;fillColor=none;top=0;left=0;bottom=0;right=0;align=left;spacingLeft=6;overflow=hidden;whiteSpace=wrap;html=1;fontSize=24;strokeColor=#000000;" parent="QKaa7FEPIGwUNo9bZV-P-100" vertex="1">
          <mxGeometry x="40" width="240" height="30" as="geometry">
            <mxRectangle width="240" height="30" as="alternateBounds" />
          </mxGeometry>
        </mxCell>
        <mxCell id="QKaa7FEPIGwUNo9bZV-P-103" value="" style="shape=tableRow;horizontal=0;startSize=0;swimlaneHead=0;swimlaneBody=0;fillColor=none;collapsible=0;dropTarget=0;points=[[0,0.5],[1,0.5]];portConstraint=eastwest;top=0;left=0;right=0;bottom=0;fontSize=24;strokeColor=#000000;" parent="QKaa7FEPIGwUNo9bZV-P-84" vertex="1">
          <mxGeometry y="140" width="280" height="30" as="geometry" />
        </mxCell>
        <mxCell id="QKaa7FEPIGwUNo9bZV-P-104" value="" style="shape=partialRectangle;connectable=0;fillColor=none;top=0;left=0;bottom=0;right=0;editable=1;overflow=hidden;whiteSpace=wrap;html=1;fontSize=24;strokeColor=#000000;" parent="QKaa7FEPIGwUNo9bZV-P-103" vertex="1">
          <mxGeometry width="40" height="30" as="geometry">
            <mxRectangle width="40" height="30" as="alternateBounds" />
          </mxGeometry>
        </mxCell>
        <mxCell id="QKaa7FEPIGwUNo9bZV-P-105" value="Class" style="shape=partialRectangle;connectable=0;fillColor=none;top=0;left=0;bottom=0;right=0;align=left;spacingLeft=6;overflow=hidden;whiteSpace=wrap;html=1;fontSize=24;strokeColor=#000000;" parent="QKaa7FEPIGwUNo9bZV-P-103" vertex="1">
          <mxGeometry x="40" width="240" height="30" as="geometry">
            <mxRectangle width="240" height="30" as="alternateBounds" />
          </mxGeometry>
        </mxCell>
        <mxCell id="QKaa7FEPIGwUNo9bZV-P-205" value="Teacher" style="shape=table;startSize=30;container=1;collapsible=1;childLayout=tableLayout;fixedRows=1;rowLines=0;fontStyle=1;align=center;resizeLast=1;html=1;fontSize=24;rounded=1;fillColor=#b0e3e6;strokeColor=#0e8088;" parent="1" vertex="1">
          <mxGeometry x="-312.38" y="4752.5" width="280" height="140" as="geometry">
            <mxRectangle x="-1300" y="2560" width="100" height="40" as="alternateBounds" />
          </mxGeometry>
        </mxCell>
        <mxCell id="QKaa7FEPIGwUNo9bZV-P-206" value="" style="shape=tableRow;horizontal=0;startSize=0;swimlaneHead=0;swimlaneBody=0;fillColor=none;collapsible=0;dropTarget=0;points=[[0,0.5],[1,0.5]];portConstraint=eastwest;top=0;left=0;right=0;bottom=1;fontSize=24;strokeColor=#000000;" parent="QKaa7FEPIGwUNo9bZV-P-205" vertex="1">
          <mxGeometry y="30" width="280" height="50" as="geometry" />
        </mxCell>
        <mxCell id="QKaa7FEPIGwUNo9bZV-P-207" value="PK" style="shape=partialRectangle;connectable=0;fillColor=none;top=0;left=0;bottom=0;right=0;fontStyle=1;overflow=hidden;whiteSpace=wrap;html=1;fontSize=24;strokeColor=#000000;" parent="QKaa7FEPIGwUNo9bZV-P-206" vertex="1">
          <mxGeometry width="40" height="50" as="geometry">
            <mxRectangle width="40" height="50" as="alternateBounds" />
          </mxGeometry>
        </mxCell>
        <mxCell id="QKaa7FEPIGwUNo9bZV-P-208" value="TeacherID" style="shape=partialRectangle;connectable=0;fillColor=none;top=0;left=0;bottom=0;right=0;align=left;spacingLeft=6;fontStyle=5;overflow=hidden;whiteSpace=wrap;html=1;fontSize=24;strokeColor=#000000;" parent="QKaa7FEPIGwUNo9bZV-P-206" vertex="1">
          <mxGeometry x="40" width="240" height="50" as="geometry">
            <mxRectangle width="240" height="50" as="alternateBounds" />
          </mxGeometry>
        </mxCell>
        <mxCell id="QKaa7FEPIGwUNo9bZV-P-215" value="" style="shape=tableRow;horizontal=0;startSize=0;swimlaneHead=0;swimlaneBody=0;fillColor=none;collapsible=0;dropTarget=0;points=[[0,0.5],[1,0.5]];portConstraint=eastwest;top=0;left=0;right=0;bottom=0;fontSize=24;strokeColor=#000000;" parent="QKaa7FEPIGwUNo9bZV-P-205" vertex="1">
          <mxGeometry y="80" width="280" height="30" as="geometry" />
        </mxCell>
        <mxCell id="QKaa7FEPIGwUNo9bZV-P-216" value="" style="shape=partialRectangle;connectable=0;fillColor=none;top=0;left=0;bottom=0;right=0;editable=1;overflow=hidden;whiteSpace=wrap;html=1;fontSize=24;strokeColor=#000000;" parent="QKaa7FEPIGwUNo9bZV-P-215" vertex="1">
          <mxGeometry width="40" height="30" as="geometry">
            <mxRectangle width="40" height="30" as="alternateBounds" />
          </mxGeometry>
        </mxCell>
        <mxCell id="QKaa7FEPIGwUNo9bZV-P-217" value="AddressID" style="shape=partialRectangle;connectable=0;fillColor=none;top=0;left=0;bottom=0;right=0;align=left;spacingLeft=6;overflow=hidden;whiteSpace=wrap;html=1;fontSize=24;strokeColor=#000000;" parent="QKaa7FEPIGwUNo9bZV-P-215" vertex="1">
          <mxGeometry x="40" width="240" height="30" as="geometry">
            <mxRectangle width="240" height="30" as="alternateBounds" />
          </mxGeometry>
        </mxCell>
        <mxCell id="QKaa7FEPIGwUNo9bZV-P-218" value="" style="shape=tableRow;horizontal=0;startSize=0;swimlaneHead=0;swimlaneBody=0;fillColor=none;collapsible=0;dropTarget=0;points=[[0,0.5],[1,0.5]];portConstraint=eastwest;top=0;left=0;right=0;bottom=0;fontSize=24;strokeColor=#000000;" parent="QKaa7FEPIGwUNo9bZV-P-205" vertex="1">
          <mxGeometry y="110" width="280" height="30" as="geometry" />
        </mxCell>
        <mxCell id="QKaa7FEPIGwUNo9bZV-P-219" value="" style="shape=partialRectangle;connectable=0;fillColor=none;top=0;left=0;bottom=0;right=0;editable=1;overflow=hidden;whiteSpace=wrap;html=1;fontSize=24;strokeColor=#000000;" parent="QKaa7FEPIGwUNo9bZV-P-218" vertex="1">
          <mxGeometry width="40" height="30" as="geometry">
            <mxRectangle width="40" height="30" as="alternateBounds" />
          </mxGeometry>
        </mxCell>
        <mxCell id="QKaa7FEPIGwUNo9bZV-P-220" value="Name" style="shape=partialRectangle;connectable=0;fillColor=none;top=0;left=0;bottom=0;right=0;align=left;spacingLeft=6;overflow=hidden;whiteSpace=wrap;html=1;fontSize=24;strokeColor=#000000;" parent="QKaa7FEPIGwUNo9bZV-P-218" vertex="1">
          <mxGeometry x="40" width="240" height="30" as="geometry">
            <mxRectangle width="240" height="30" as="alternateBounds" />
          </mxGeometry>
        </mxCell>
        <mxCell id="QKaa7FEPIGwUNo9bZV-P-243" value="Student" style="shape=table;startSize=30;container=1;collapsible=1;childLayout=tableLayout;fixedRows=1;rowLines=0;fontStyle=1;align=center;resizeLast=1;html=1;fontSize=24;rounded=1;fillColor=#bac8d3;strokeColor=#23445d;" parent="1" vertex="1">
          <mxGeometry x="21.25" y="4752.5" width="280" height="320" as="geometry">
            <mxRectangle x="-1300" y="2560" width="100" height="40" as="alternateBounds" />
          </mxGeometry>
        </mxCell>
        <mxCell id="QKaa7FEPIGwUNo9bZV-P-244" value="" style="shape=tableRow;horizontal=0;startSize=0;swimlaneHead=0;swimlaneBody=0;fillColor=none;collapsible=0;dropTarget=0;points=[[0,0.5],[1,0.5]];portConstraint=eastwest;top=0;left=0;right=0;bottom=1;fontSize=24;strokeColor=#000000;" parent="QKaa7FEPIGwUNo9bZV-P-243" vertex="1">
          <mxGeometry y="30" width="280" height="50" as="geometry" />
        </mxCell>
        <mxCell id="QKaa7FEPIGwUNo9bZV-P-245" value="PK" style="shape=partialRectangle;connectable=0;fillColor=none;top=0;left=0;bottom=0;right=0;fontStyle=1;overflow=hidden;whiteSpace=wrap;html=1;fontSize=24;strokeColor=#000000;" parent="QKaa7FEPIGwUNo9bZV-P-244" vertex="1">
          <mxGeometry width="40" height="50" as="geometry">
            <mxRectangle width="40" height="50" as="alternateBounds" />
          </mxGeometry>
        </mxCell>
        <mxCell id="QKaa7FEPIGwUNo9bZV-P-246" value="SubjectID" style="shape=partialRectangle;connectable=0;fillColor=none;top=0;left=0;bottom=0;right=0;align=left;spacingLeft=6;fontStyle=5;overflow=hidden;whiteSpace=wrap;html=1;fontSize=24;strokeColor=#000000;" parent="QKaa7FEPIGwUNo9bZV-P-244" vertex="1">
          <mxGeometry x="40" width="240" height="50" as="geometry">
            <mxRectangle width="240" height="50" as="alternateBounds" />
          </mxGeometry>
        </mxCell>
        <mxCell id="QKaa7FEPIGwUNo9bZV-P-250" value="" style="shape=tableRow;horizontal=0;startSize=0;swimlaneHead=0;swimlaneBody=0;fillColor=none;collapsible=0;dropTarget=0;points=[[0,0.5],[1,0.5]];portConstraint=eastwest;top=0;left=0;right=0;bottom=0;fontSize=24;strokeColor=#000000;" parent="QKaa7FEPIGwUNo9bZV-P-243" vertex="1">
          <mxGeometry y="80" width="280" height="30" as="geometry" />
        </mxCell>
        <mxCell id="QKaa7FEPIGwUNo9bZV-P-251" value="" style="shape=partialRectangle;connectable=0;fillColor=none;top=0;left=0;bottom=0;right=0;editable=1;overflow=hidden;whiteSpace=wrap;html=1;fontSize=24;strokeColor=#000000;" parent="QKaa7FEPIGwUNo9bZV-P-250" vertex="1">
          <mxGeometry width="40" height="30" as="geometry">
            <mxRectangle width="40" height="30" as="alternateBounds" />
          </mxGeometry>
        </mxCell>
        <mxCell id="QKaa7FEPIGwUNo9bZV-P-252" value="Group" style="shape=partialRectangle;connectable=0;fillColor=none;top=0;left=0;bottom=0;right=0;align=left;spacingLeft=6;overflow=hidden;whiteSpace=wrap;html=1;fontSize=24;strokeColor=#000000;" parent="QKaa7FEPIGwUNo9bZV-P-250" vertex="1">
          <mxGeometry x="40" width="240" height="30" as="geometry">
            <mxRectangle width="240" height="30" as="alternateBounds" />
          </mxGeometry>
        </mxCell>
        <mxCell id="QKaa7FEPIGwUNo9bZV-P-253" value="" style="shape=tableRow;horizontal=0;startSize=0;swimlaneHead=0;swimlaneBody=0;fillColor=none;collapsible=0;dropTarget=0;points=[[0,0.5],[1,0.5]];portConstraint=eastwest;top=0;left=0;right=0;bottom=0;fontSize=24;strokeColor=#000000;" parent="QKaa7FEPIGwUNo9bZV-P-243" vertex="1">
          <mxGeometry y="110" width="280" height="30" as="geometry" />
        </mxCell>
        <mxCell id="QKaa7FEPIGwUNo9bZV-P-254" value="" style="shape=partialRectangle;connectable=0;fillColor=none;top=0;left=0;bottom=0;right=0;editable=1;overflow=hidden;whiteSpace=wrap;html=1;fontSize=24;strokeColor=#000000;" parent="QKaa7FEPIGwUNo9bZV-P-253" vertex="1">
          <mxGeometry width="40" height="30" as="geometry">
            <mxRectangle width="40" height="30" as="alternateBounds" />
          </mxGeometry>
        </mxCell>
        <mxCell id="QKaa7FEPIGwUNo9bZV-P-255" value="SubjectID" style="shape=partialRectangle;connectable=0;fillColor=none;top=0;left=0;bottom=0;right=0;align=left;spacingLeft=6;overflow=hidden;whiteSpace=wrap;html=1;fontSize=24;strokeColor=#000000;" parent="QKaa7FEPIGwUNo9bZV-P-253" vertex="1">
          <mxGeometry x="40" width="240" height="30" as="geometry">
            <mxRectangle width="240" height="30" as="alternateBounds" />
          </mxGeometry>
        </mxCell>
        <mxCell id="QKaa7FEPIGwUNo9bZV-P-256" value="" style="shape=tableRow;horizontal=0;startSize=0;swimlaneHead=0;swimlaneBody=0;fillColor=none;collapsible=0;dropTarget=0;points=[[0,0.5],[1,0.5]];portConstraint=eastwest;top=0;left=0;right=0;bottom=0;fontSize=24;strokeColor=#000000;" parent="QKaa7FEPIGwUNo9bZV-P-243" vertex="1">
          <mxGeometry y="140" width="280" height="30" as="geometry" />
        </mxCell>
        <mxCell id="QKaa7FEPIGwUNo9bZV-P-257" value="" style="shape=partialRectangle;connectable=0;fillColor=none;top=0;left=0;bottom=0;right=0;editable=1;overflow=hidden;whiteSpace=wrap;html=1;fontSize=24;strokeColor=#000000;" parent="QKaa7FEPIGwUNo9bZV-P-256" vertex="1">
          <mxGeometry width="40" height="30" as="geometry">
            <mxRectangle width="40" height="30" as="alternateBounds" />
          </mxGeometry>
        </mxCell>
        <mxCell id="QKaa7FEPIGwUNo9bZV-P-258" value="AddressID" style="shape=partialRectangle;connectable=0;fillColor=none;top=0;left=0;bottom=0;right=0;align=left;spacingLeft=6;overflow=hidden;whiteSpace=wrap;html=1;fontSize=24;strokeColor=#000000;" parent="QKaa7FEPIGwUNo9bZV-P-256" vertex="1">
          <mxGeometry x="40" width="240" height="30" as="geometry">
            <mxRectangle width="240" height="30" as="alternateBounds" />
          </mxGeometry>
        </mxCell>
        <mxCell id="QKaa7FEPIGwUNo9bZV-P-262" value="" style="shape=tableRow;horizontal=0;startSize=0;swimlaneHead=0;swimlaneBody=0;fillColor=none;collapsible=0;dropTarget=0;points=[[0,0.5],[1,0.5]];portConstraint=eastwest;top=0;left=0;right=0;bottom=0;fontSize=24;strokeColor=#000000;" parent="QKaa7FEPIGwUNo9bZV-P-243" vertex="1">
          <mxGeometry y="170" width="280" height="30" as="geometry" />
        </mxCell>
        <mxCell id="QKaa7FEPIGwUNo9bZV-P-263" value="" style="shape=partialRectangle;connectable=0;fillColor=none;top=0;left=0;bottom=0;right=0;editable=1;overflow=hidden;whiteSpace=wrap;html=1;fontSize=24;strokeColor=#000000;" parent="QKaa7FEPIGwUNo9bZV-P-262" vertex="1">
          <mxGeometry width="40" height="30" as="geometry">
            <mxRectangle width="40" height="30" as="alternateBounds" />
          </mxGeometry>
        </mxCell>
        <mxCell id="QKaa7FEPIGwUNo9bZV-P-264" value="First_name" style="shape=partialRectangle;connectable=0;fillColor=none;top=0;left=0;bottom=0;right=0;align=left;spacingLeft=6;overflow=hidden;whiteSpace=wrap;html=1;fontSize=24;strokeColor=#000000;" parent="QKaa7FEPIGwUNo9bZV-P-262" vertex="1">
          <mxGeometry x="40" width="240" height="30" as="geometry">
            <mxRectangle width="240" height="30" as="alternateBounds" />
          </mxGeometry>
        </mxCell>
        <mxCell id="QKaa7FEPIGwUNo9bZV-P-265" value="" style="shape=tableRow;horizontal=0;startSize=0;swimlaneHead=0;swimlaneBody=0;fillColor=none;collapsible=0;dropTarget=0;points=[[0,0.5],[1,0.5]];portConstraint=eastwest;top=0;left=0;right=0;bottom=0;fontSize=24;strokeColor=#000000;" parent="QKaa7FEPIGwUNo9bZV-P-243" vertex="1">
          <mxGeometry y="200" width="280" height="30" as="geometry" />
        </mxCell>
        <mxCell id="QKaa7FEPIGwUNo9bZV-P-266" value="" style="shape=partialRectangle;connectable=0;fillColor=none;top=0;left=0;bottom=0;right=0;editable=1;overflow=hidden;whiteSpace=wrap;html=1;fontSize=24;strokeColor=#000000;" parent="QKaa7FEPIGwUNo9bZV-P-265" vertex="1">
          <mxGeometry width="40" height="30" as="geometry">
            <mxRectangle width="40" height="30" as="alternateBounds" />
          </mxGeometry>
        </mxCell>
        <mxCell id="QKaa7FEPIGwUNo9bZV-P-267" value="Last_name" style="shape=partialRectangle;connectable=0;fillColor=none;top=0;left=0;bottom=0;right=0;align=left;spacingLeft=6;overflow=hidden;whiteSpace=wrap;html=1;fontSize=24;strokeColor=#000000;" parent="QKaa7FEPIGwUNo9bZV-P-265" vertex="1">
          <mxGeometry x="40" width="240" height="30" as="geometry">
            <mxRectangle width="240" height="30" as="alternateBounds" />
          </mxGeometry>
        </mxCell>
        <mxCell id="QKaa7FEPIGwUNo9bZV-P-268" value="" style="shape=tableRow;horizontal=0;startSize=0;swimlaneHead=0;swimlaneBody=0;fillColor=none;collapsible=0;dropTarget=0;points=[[0,0.5],[1,0.5]];portConstraint=eastwest;top=0;left=0;right=0;bottom=0;fontSize=24;strokeColor=#000000;" parent="QKaa7FEPIGwUNo9bZV-P-243" vertex="1">
          <mxGeometry y="230" width="280" height="30" as="geometry" />
        </mxCell>
        <mxCell id="QKaa7FEPIGwUNo9bZV-P-269" value="" style="shape=partialRectangle;connectable=0;fillColor=none;top=0;left=0;bottom=0;right=0;editable=1;overflow=hidden;whiteSpace=wrap;html=1;fontSize=24;strokeColor=#000000;" parent="QKaa7FEPIGwUNo9bZV-P-268" vertex="1">
          <mxGeometry width="40" height="30" as="geometry">
            <mxRectangle width="40" height="30" as="alternateBounds" />
          </mxGeometry>
        </mxCell>
        <mxCell id="QKaa7FEPIGwUNo9bZV-P-270" value="Gender" style="shape=partialRectangle;connectable=0;fillColor=none;top=0;left=0;bottom=0;right=0;align=left;spacingLeft=6;overflow=hidden;whiteSpace=wrap;html=1;fontSize=24;strokeColor=#000000;" parent="QKaa7FEPIGwUNo9bZV-P-268" vertex="1">
          <mxGeometry x="40" width="240" height="30" as="geometry">
            <mxRectangle width="240" height="30" as="alternateBounds" />
          </mxGeometry>
        </mxCell>
        <mxCell id="QKaa7FEPIGwUNo9bZV-P-299" value="" style="shape=tableRow;horizontal=0;startSize=0;swimlaneHead=0;swimlaneBody=0;fillColor=none;collapsible=0;dropTarget=0;points=[[0,0.5],[1,0.5]];portConstraint=eastwest;top=0;left=0;right=0;bottom=0;fontSize=24;strokeColor=#000000;" parent="QKaa7FEPIGwUNo9bZV-P-243" vertex="1">
          <mxGeometry y="260" width="280" height="30" as="geometry" />
        </mxCell>
        <mxCell id="QKaa7FEPIGwUNo9bZV-P-300" value="" style="shape=partialRectangle;connectable=0;fillColor=none;top=0;left=0;bottom=0;right=0;editable=1;overflow=hidden;whiteSpace=wrap;html=1;fontSize=24;strokeColor=#000000;" parent="QKaa7FEPIGwUNo9bZV-P-299" vertex="1">
          <mxGeometry width="40" height="30" as="geometry">
            <mxRectangle width="40" height="30" as="alternateBounds" />
          </mxGeometry>
        </mxCell>
        <mxCell id="QKaa7FEPIGwUNo9bZV-P-301" value="Email" style="shape=partialRectangle;connectable=0;fillColor=none;top=0;left=0;bottom=0;right=0;align=left;spacingLeft=6;overflow=hidden;whiteSpace=wrap;html=1;fontSize=24;strokeColor=#000000;" parent="QKaa7FEPIGwUNo9bZV-P-299" vertex="1">
          <mxGeometry x="40" width="240" height="30" as="geometry">
            <mxRectangle width="240" height="30" as="alternateBounds" />
          </mxGeometry>
        </mxCell>
        <mxCell id="QKaa7FEPIGwUNo9bZV-P-302" value="" style="shape=tableRow;horizontal=0;startSize=0;swimlaneHead=0;swimlaneBody=0;fillColor=none;collapsible=0;dropTarget=0;points=[[0,0.5],[1,0.5]];portConstraint=eastwest;top=0;left=0;right=0;bottom=0;fontSize=24;strokeColor=#000000;" parent="QKaa7FEPIGwUNo9bZV-P-243" vertex="1">
          <mxGeometry y="290" width="280" height="30" as="geometry" />
        </mxCell>
        <mxCell id="QKaa7FEPIGwUNo9bZV-P-303" value="" style="shape=partialRectangle;connectable=0;fillColor=none;top=0;left=0;bottom=0;right=0;editable=1;overflow=hidden;whiteSpace=wrap;html=1;fontSize=24;strokeColor=#000000;" parent="QKaa7FEPIGwUNo9bZV-P-302" vertex="1">
          <mxGeometry width="40" height="30" as="geometry">
            <mxRectangle width="40" height="30" as="alternateBounds" />
          </mxGeometry>
        </mxCell>
        <mxCell id="QKaa7FEPIGwUNo9bZV-P-304" value="DoB" style="shape=partialRectangle;connectable=0;fillColor=none;top=0;left=0;bottom=0;right=0;align=left;spacingLeft=6;overflow=hidden;whiteSpace=wrap;html=1;fontSize=24;strokeColor=#000000;" parent="QKaa7FEPIGwUNo9bZV-P-302" vertex="1">
          <mxGeometry x="40" width="240" height="30" as="geometry">
            <mxRectangle width="240" height="30" as="alternateBounds" />
          </mxGeometry>
        </mxCell>
        <mxCell id="QKaa7FEPIGwUNo9bZV-P-305" value="Attendant" style="shape=table;startSize=30;container=1;collapsible=1;childLayout=tableLayout;fixedRows=1;rowLines=0;fontStyle=1;align=center;resizeLast=1;html=1;fontSize=24;rounded=1;fillColor=#d5e8d4;strokeColor=#82b366;" parent="1" vertex="1">
          <mxGeometry x="354.87" y="4752.5" width="280" height="170" as="geometry">
            <mxRectangle x="-1300" y="2560" width="100" height="40" as="alternateBounds" />
          </mxGeometry>
        </mxCell>
        <mxCell id="QKaa7FEPIGwUNo9bZV-P-306" value="" style="shape=tableRow;horizontal=0;startSize=0;swimlaneHead=0;swimlaneBody=0;fillColor=none;collapsible=0;dropTarget=0;points=[[0,0.5],[1,0.5]];portConstraint=eastwest;top=0;left=0;right=0;bottom=1;fontSize=24;strokeColor=#000000;" parent="QKaa7FEPIGwUNo9bZV-P-305" vertex="1">
          <mxGeometry y="30" width="280" height="50" as="geometry" />
        </mxCell>
        <mxCell id="QKaa7FEPIGwUNo9bZV-P-307" value="PK" style="shape=partialRectangle;connectable=0;fillColor=none;top=0;left=0;bottom=0;right=0;fontStyle=1;overflow=hidden;whiteSpace=wrap;html=1;fontSize=24;strokeColor=#000000;" parent="QKaa7FEPIGwUNo9bZV-P-306" vertex="1">
          <mxGeometry width="40" height="50" as="geometry">
            <mxRectangle width="40" height="50" as="alternateBounds" />
          </mxGeometry>
        </mxCell>
        <mxCell id="QKaa7FEPIGwUNo9bZV-P-308" value="AttendantID" style="shape=partialRectangle;connectable=0;fillColor=none;top=0;left=0;bottom=0;right=0;align=left;spacingLeft=6;fontStyle=5;overflow=hidden;whiteSpace=wrap;html=1;fontSize=24;strokeColor=#000000;" parent="QKaa7FEPIGwUNo9bZV-P-306" vertex="1">
          <mxGeometry x="40" width="240" height="50" as="geometry">
            <mxRectangle width="240" height="50" as="alternateBounds" />
          </mxGeometry>
        </mxCell>
        <mxCell id="QKaa7FEPIGwUNo9bZV-P-309" value="" style="shape=tableRow;horizontal=0;startSize=0;swimlaneHead=0;swimlaneBody=0;fillColor=none;collapsible=0;dropTarget=0;points=[[0,0.5],[1,0.5]];portConstraint=eastwest;top=0;left=0;right=0;bottom=0;fontSize=24;strokeColor=#000000;" parent="QKaa7FEPIGwUNo9bZV-P-305" vertex="1">
          <mxGeometry y="80" width="280" height="30" as="geometry" />
        </mxCell>
        <mxCell id="QKaa7FEPIGwUNo9bZV-P-310" value="" style="shape=partialRectangle;connectable=0;fillColor=none;top=0;left=0;bottom=0;right=0;editable=1;overflow=hidden;whiteSpace=wrap;html=1;fontSize=24;strokeColor=#000000;" parent="QKaa7FEPIGwUNo9bZV-P-309" vertex="1">
          <mxGeometry width="40" height="30" as="geometry">
            <mxRectangle width="40" height="30" as="alternateBounds" />
          </mxGeometry>
        </mxCell>
        <mxCell id="QKaa7FEPIGwUNo9bZV-P-311" value="Date" style="shape=partialRectangle;connectable=0;fillColor=none;top=0;left=0;bottom=0;right=0;align=left;spacingLeft=6;overflow=hidden;whiteSpace=wrap;html=1;fontSize=24;strokeColor=#000000;" parent="QKaa7FEPIGwUNo9bZV-P-309" vertex="1">
          <mxGeometry x="40" width="240" height="30" as="geometry">
            <mxRectangle width="240" height="30" as="alternateBounds" />
          </mxGeometry>
        </mxCell>
        <mxCell id="QKaa7FEPIGwUNo9bZV-P-312" value="" style="shape=tableRow;horizontal=0;startSize=0;swimlaneHead=0;swimlaneBody=0;fillColor=none;collapsible=0;dropTarget=0;points=[[0,0.5],[1,0.5]];portConstraint=eastwest;top=0;left=0;right=0;bottom=0;fontSize=24;strokeColor=#000000;" parent="QKaa7FEPIGwUNo9bZV-P-305" vertex="1">
          <mxGeometry y="110" width="280" height="30" as="geometry" />
        </mxCell>
        <mxCell id="QKaa7FEPIGwUNo9bZV-P-313" value="" style="shape=partialRectangle;connectable=0;fillColor=none;top=0;left=0;bottom=0;right=0;editable=1;overflow=hidden;whiteSpace=wrap;html=1;fontSize=24;strokeColor=#000000;" parent="QKaa7FEPIGwUNo9bZV-P-312" vertex="1">
          <mxGeometry width="40" height="30" as="geometry">
            <mxRectangle width="40" height="30" as="alternateBounds" />
          </mxGeometry>
        </mxCell>
        <mxCell id="QKaa7FEPIGwUNo9bZV-P-314" value="Time" style="shape=partialRectangle;connectable=0;fillColor=none;top=0;left=0;bottom=0;right=0;align=left;spacingLeft=6;overflow=hidden;whiteSpace=wrap;html=1;fontSize=24;strokeColor=#000000;" parent="QKaa7FEPIGwUNo9bZV-P-312" vertex="1">
          <mxGeometry x="40" width="240" height="30" as="geometry">
            <mxRectangle width="240" height="30" as="alternateBounds" />
          </mxGeometry>
        </mxCell>
        <mxCell id="QKaa7FEPIGwUNo9bZV-P-315" value="" style="shape=tableRow;horizontal=0;startSize=0;swimlaneHead=0;swimlaneBody=0;fillColor=none;collapsible=0;dropTarget=0;points=[[0,0.5],[1,0.5]];portConstraint=eastwest;top=0;left=0;right=0;bottom=0;fontSize=24;strokeColor=#000000;" parent="QKaa7FEPIGwUNo9bZV-P-305" vertex="1">
          <mxGeometry y="140" width="280" height="30" as="geometry" />
        </mxCell>
        <mxCell id="QKaa7FEPIGwUNo9bZV-P-316" value="" style="shape=partialRectangle;connectable=0;fillColor=none;top=0;left=0;bottom=0;right=0;editable=1;overflow=hidden;whiteSpace=wrap;html=1;fontSize=24;strokeColor=#000000;" parent="QKaa7FEPIGwUNo9bZV-P-315" vertex="1">
          <mxGeometry width="40" height="30" as="geometry">
            <mxRectangle width="40" height="30" as="alternateBounds" />
          </mxGeometry>
        </mxCell>
        <mxCell id="QKaa7FEPIGwUNo9bZV-P-317" value="StudentID" style="shape=partialRectangle;connectable=0;fillColor=none;top=0;left=0;bottom=0;right=0;align=left;spacingLeft=6;overflow=hidden;whiteSpace=wrap;html=1;fontSize=24;strokeColor=#000000;" parent="QKaa7FEPIGwUNo9bZV-P-315" vertex="1">
          <mxGeometry x="40" width="240" height="30" as="geometry">
            <mxRectangle width="240" height="30" as="alternateBounds" />
          </mxGeometry>
        </mxCell>
        <mxCell id="QKaa7FEPIGwUNo9bZV-P-339" value="Address" style="shape=table;startSize=30;container=1;collapsible=1;childLayout=tableLayout;fixedRows=1;rowLines=0;fontStyle=1;align=center;resizeLast=1;html=1;fontSize=24;rounded=1;fillColor=#ffff88;strokeColor=#36393d;" parent="1" vertex="1">
          <mxGeometry x="354.87" y="4960" width="280" height="260" as="geometry">
            <mxRectangle x="-1300" y="2560" width="100" height="40" as="alternateBounds" />
          </mxGeometry>
        </mxCell>
        <mxCell id="QKaa7FEPIGwUNo9bZV-P-340" value="" style="shape=tableRow;horizontal=0;startSize=0;swimlaneHead=0;swimlaneBody=0;fillColor=none;collapsible=0;dropTarget=0;points=[[0,0.5],[1,0.5]];portConstraint=eastwest;top=0;left=0;right=0;bottom=1;fontSize=24;strokeColor=#000000;" parent="QKaa7FEPIGwUNo9bZV-P-339" vertex="1">
          <mxGeometry y="30" width="280" height="50" as="geometry" />
        </mxCell>
        <mxCell id="QKaa7FEPIGwUNo9bZV-P-341" value="PK" style="shape=partialRectangle;connectable=0;fillColor=none;top=0;left=0;bottom=0;right=0;fontStyle=1;overflow=hidden;whiteSpace=wrap;html=1;fontSize=24;strokeColor=#000000;" parent="QKaa7FEPIGwUNo9bZV-P-340" vertex="1">
          <mxGeometry width="40" height="50" as="geometry">
            <mxRectangle width="40" height="50" as="alternateBounds" />
          </mxGeometry>
        </mxCell>
        <mxCell id="QKaa7FEPIGwUNo9bZV-P-342" value="AddressID" style="shape=partialRectangle;connectable=0;fillColor=none;top=0;left=0;bottom=0;right=0;align=left;spacingLeft=6;fontStyle=5;overflow=hidden;whiteSpace=wrap;html=1;fontSize=24;strokeColor=#000000;" parent="QKaa7FEPIGwUNo9bZV-P-340" vertex="1">
          <mxGeometry x="40" width="240" height="50" as="geometry">
            <mxRectangle width="240" height="50" as="alternateBounds" />
          </mxGeometry>
        </mxCell>
        <mxCell id="QKaa7FEPIGwUNo9bZV-P-343" value="" style="shape=tableRow;horizontal=0;startSize=0;swimlaneHead=0;swimlaneBody=0;fillColor=none;collapsible=0;dropTarget=0;points=[[0,0.5],[1,0.5]];portConstraint=eastwest;top=0;left=0;right=0;bottom=0;fontSize=24;strokeColor=#000000;" parent="QKaa7FEPIGwUNo9bZV-P-339" vertex="1">
          <mxGeometry y="80" width="280" height="30" as="geometry" />
        </mxCell>
        <mxCell id="QKaa7FEPIGwUNo9bZV-P-344" value="" style="shape=partialRectangle;connectable=0;fillColor=none;top=0;left=0;bottom=0;right=0;editable=1;overflow=hidden;whiteSpace=wrap;html=1;fontSize=24;strokeColor=#000000;" parent="QKaa7FEPIGwUNo9bZV-P-343" vertex="1">
          <mxGeometry width="40" height="30" as="geometry">
            <mxRectangle width="40" height="30" as="alternateBounds" />
          </mxGeometry>
        </mxCell>
        <mxCell id="QKaa7FEPIGwUNo9bZV-P-345" value="ProvinceID" style="shape=partialRectangle;connectable=0;fillColor=none;top=0;left=0;bottom=0;right=0;align=left;spacingLeft=6;overflow=hidden;whiteSpace=wrap;html=1;fontSize=24;strokeColor=#000000;" parent="QKaa7FEPIGwUNo9bZV-P-343" vertex="1">
          <mxGeometry x="40" width="240" height="30" as="geometry">
            <mxRectangle width="240" height="30" as="alternateBounds" />
          </mxGeometry>
        </mxCell>
        <mxCell id="QKaa7FEPIGwUNo9bZV-P-346" value="" style="shape=tableRow;horizontal=0;startSize=0;swimlaneHead=0;swimlaneBody=0;fillColor=none;collapsible=0;dropTarget=0;points=[[0,0.5],[1,0.5]];portConstraint=eastwest;top=0;left=0;right=0;bottom=0;fontSize=24;strokeColor=#000000;" parent="QKaa7FEPIGwUNo9bZV-P-339" vertex="1">
          <mxGeometry y="110" width="280" height="30" as="geometry" />
        </mxCell>
        <mxCell id="QKaa7FEPIGwUNo9bZV-P-347" value="" style="shape=partialRectangle;connectable=0;fillColor=none;top=0;left=0;bottom=0;right=0;editable=1;overflow=hidden;whiteSpace=wrap;html=1;fontSize=24;strokeColor=#000000;" parent="QKaa7FEPIGwUNo9bZV-P-346" vertex="1">
          <mxGeometry width="40" height="30" as="geometry">
            <mxRectangle width="40" height="30" as="alternateBounds" />
          </mxGeometry>
        </mxCell>
        <mxCell id="QKaa7FEPIGwUNo9bZV-P-348" value="DistrictID" style="shape=partialRectangle;connectable=0;fillColor=none;top=0;left=0;bottom=0;right=0;align=left;spacingLeft=6;overflow=hidden;whiteSpace=wrap;html=1;fontSize=24;strokeColor=#000000;" parent="QKaa7FEPIGwUNo9bZV-P-346" vertex="1">
          <mxGeometry x="40" width="240" height="30" as="geometry">
            <mxRectangle width="240" height="30" as="alternateBounds" />
          </mxGeometry>
        </mxCell>
        <mxCell id="QKaa7FEPIGwUNo9bZV-P-349" value="" style="shape=tableRow;horizontal=0;startSize=0;swimlaneHead=0;swimlaneBody=0;fillColor=none;collapsible=0;dropTarget=0;points=[[0,0.5],[1,0.5]];portConstraint=eastwest;top=0;left=0;right=0;bottom=0;fontSize=24;strokeColor=#000000;" parent="QKaa7FEPIGwUNo9bZV-P-339" vertex="1">
          <mxGeometry y="140" width="280" height="30" as="geometry" />
        </mxCell>
        <mxCell id="QKaa7FEPIGwUNo9bZV-P-350" value="" style="shape=partialRectangle;connectable=0;fillColor=none;top=0;left=0;bottom=0;right=0;editable=1;overflow=hidden;whiteSpace=wrap;html=1;fontSize=24;strokeColor=#000000;" parent="QKaa7FEPIGwUNo9bZV-P-349" vertex="1">
          <mxGeometry width="40" height="30" as="geometry">
            <mxRectangle width="40" height="30" as="alternateBounds" />
          </mxGeometry>
        </mxCell>
        <mxCell id="QKaa7FEPIGwUNo9bZV-P-351" value="CommuneID" style="shape=partialRectangle;connectable=0;fillColor=none;top=0;left=0;bottom=0;right=0;align=left;spacingLeft=6;overflow=hidden;whiteSpace=wrap;html=1;fontSize=24;strokeColor=#000000;" parent="QKaa7FEPIGwUNo9bZV-P-349" vertex="1">
          <mxGeometry x="40" width="240" height="30" as="geometry">
            <mxRectangle width="240" height="30" as="alternateBounds" />
          </mxGeometry>
        </mxCell>
        <mxCell id="QKaa7FEPIGwUNo9bZV-P-352" value="" style="shape=tableRow;horizontal=0;startSize=0;swimlaneHead=0;swimlaneBody=0;fillColor=none;collapsible=0;dropTarget=0;points=[[0,0.5],[1,0.5]];portConstraint=eastwest;top=0;left=0;right=0;bottom=0;fontSize=24;strokeColor=#000000;" parent="QKaa7FEPIGwUNo9bZV-P-339" vertex="1">
          <mxGeometry y="170" width="280" height="30" as="geometry" />
        </mxCell>
        <mxCell id="QKaa7FEPIGwUNo9bZV-P-353" value="" style="shape=partialRectangle;connectable=0;fillColor=none;top=0;left=0;bottom=0;right=0;editable=1;overflow=hidden;whiteSpace=wrap;html=1;fontSize=24;strokeColor=#000000;" parent="QKaa7FEPIGwUNo9bZV-P-352" vertex="1">
          <mxGeometry width="40" height="30" as="geometry">
            <mxRectangle width="40" height="30" as="alternateBounds" />
          </mxGeometry>
        </mxCell>
        <mxCell id="QKaa7FEPIGwUNo9bZV-P-354" value="VillageID" style="shape=partialRectangle;connectable=0;fillColor=none;top=0;left=0;bottom=0;right=0;align=left;spacingLeft=6;overflow=hidden;whiteSpace=wrap;html=1;fontSize=24;strokeColor=#000000;" parent="QKaa7FEPIGwUNo9bZV-P-352" vertex="1">
          <mxGeometry x="40" width="240" height="30" as="geometry">
            <mxRectangle width="240" height="30" as="alternateBounds" />
          </mxGeometry>
        </mxCell>
        <mxCell id="QKaa7FEPIGwUNo9bZV-P-355" value="" style="shape=tableRow;horizontal=0;startSize=0;swimlaneHead=0;swimlaneBody=0;fillColor=none;collapsible=0;dropTarget=0;points=[[0,0.5],[1,0.5]];portConstraint=eastwest;top=0;left=0;right=0;bottom=0;fontSize=24;strokeColor=#000000;" parent="QKaa7FEPIGwUNo9bZV-P-339" vertex="1">
          <mxGeometry y="200" width="280" height="30" as="geometry" />
        </mxCell>
        <mxCell id="QKaa7FEPIGwUNo9bZV-P-356" value="" style="shape=partialRectangle;connectable=0;fillColor=none;top=0;left=0;bottom=0;right=0;editable=1;overflow=hidden;whiteSpace=wrap;html=1;fontSize=24;strokeColor=#000000;" parent="QKaa7FEPIGwUNo9bZV-P-355" vertex="1">
          <mxGeometry width="40" height="30" as="geometry">
            <mxRectangle width="40" height="30" as="alternateBounds" />
          </mxGeometry>
        </mxCell>
        <mxCell id="QKaa7FEPIGwUNo9bZV-P-357" value="Home" style="shape=partialRectangle;connectable=0;fillColor=none;top=0;left=0;bottom=0;right=0;align=left;spacingLeft=6;overflow=hidden;whiteSpace=wrap;html=1;fontSize=24;strokeColor=#000000;" parent="QKaa7FEPIGwUNo9bZV-P-355" vertex="1">
          <mxGeometry x="40" width="240" height="30" as="geometry">
            <mxRectangle width="240" height="30" as="alternateBounds" />
          </mxGeometry>
        </mxCell>
        <mxCell id="QKaa7FEPIGwUNo9bZV-P-358" value="" style="shape=tableRow;horizontal=0;startSize=0;swimlaneHead=0;swimlaneBody=0;fillColor=none;collapsible=0;dropTarget=0;points=[[0,0.5],[1,0.5]];portConstraint=eastwest;top=0;left=0;right=0;bottom=0;fontSize=24;strokeColor=#000000;" parent="QKaa7FEPIGwUNo9bZV-P-339" vertex="1">
          <mxGeometry y="230" width="280" height="30" as="geometry" />
        </mxCell>
        <mxCell id="QKaa7FEPIGwUNo9bZV-P-359" value="" style="shape=partialRectangle;connectable=0;fillColor=none;top=0;left=0;bottom=0;right=0;editable=1;overflow=hidden;whiteSpace=wrap;html=1;fontSize=24;strokeColor=#000000;" parent="QKaa7FEPIGwUNo9bZV-P-358" vertex="1">
          <mxGeometry width="40" height="30" as="geometry">
            <mxRectangle width="40" height="30" as="alternateBounds" />
          </mxGeometry>
        </mxCell>
        <mxCell id="QKaa7FEPIGwUNo9bZV-P-360" value="Street" style="shape=partialRectangle;connectable=0;fillColor=none;top=0;left=0;bottom=0;right=0;align=left;spacingLeft=6;overflow=hidden;whiteSpace=wrap;html=1;fontSize=24;strokeColor=#000000;" parent="QKaa7FEPIGwUNo9bZV-P-358" vertex="1">
          <mxGeometry x="40" width="240" height="30" as="geometry">
            <mxRectangle width="240" height="30" as="alternateBounds" />
          </mxGeometry>
        </mxCell>
        <mxCell id="QKaa7FEPIGwUNo9bZV-P-424" value="Subject" style="shape=table;startSize=30;container=1;collapsible=1;childLayout=tableLayout;fixedRows=1;rowLines=0;fontStyle=1;align=center;resizeLast=1;html=1;fontSize=24;rounded=1;fillColor=#ffe6cc;strokeColor=#d79b00;" parent="1" vertex="1">
          <mxGeometry x="316.12" y="6480" width="280" height="170" as="geometry">
            <mxRectangle x="-1300" y="2560" width="100" height="40" as="alternateBounds" />
          </mxGeometry>
        </mxCell>
        <mxCell id="QKaa7FEPIGwUNo9bZV-P-425" value="" style="shape=tableRow;horizontal=0;startSize=0;swimlaneHead=0;swimlaneBody=0;fillColor=none;collapsible=0;dropTarget=0;points=[[0,0.5],[1,0.5]];portConstraint=eastwest;top=0;left=0;right=0;bottom=1;fontSize=24;strokeColor=#000000;" parent="QKaa7FEPIGwUNo9bZV-P-424" vertex="1">
          <mxGeometry y="30" width="280" height="50" as="geometry" />
        </mxCell>
        <mxCell id="QKaa7FEPIGwUNo9bZV-P-426" value="PK" style="shape=partialRectangle;connectable=0;fillColor=none;top=0;left=0;bottom=0;right=0;fontStyle=1;overflow=hidden;whiteSpace=wrap;html=1;fontSize=24;strokeColor=#000000;" parent="QKaa7FEPIGwUNo9bZV-P-425" vertex="1">
          <mxGeometry width="40" height="50" as="geometry">
            <mxRectangle width="40" height="50" as="alternateBounds" />
          </mxGeometry>
        </mxCell>
        <mxCell id="QKaa7FEPIGwUNo9bZV-P-427" value="SubjectID" style="shape=partialRectangle;connectable=0;fillColor=none;top=0;left=0;bottom=0;right=0;align=left;spacingLeft=6;fontStyle=5;overflow=hidden;whiteSpace=wrap;html=1;fontSize=24;strokeColor=#000000;" parent="QKaa7FEPIGwUNo9bZV-P-425" vertex="1">
          <mxGeometry x="40" width="240" height="50" as="geometry">
            <mxRectangle width="240" height="50" as="alternateBounds" />
          </mxGeometry>
        </mxCell>
        <mxCell id="QKaa7FEPIGwUNo9bZV-P-431" value="" style="shape=tableRow;horizontal=0;startSize=0;swimlaneHead=0;swimlaneBody=0;fillColor=none;collapsible=0;dropTarget=0;points=[[0,0.5],[1,0.5]];portConstraint=eastwest;top=0;left=0;right=0;bottom=0;fontSize=24;strokeColor=#000000;" parent="QKaa7FEPIGwUNo9bZV-P-424" vertex="1">
          <mxGeometry y="80" width="280" height="30" as="geometry" />
        </mxCell>
        <mxCell id="QKaa7FEPIGwUNo9bZV-P-432" value="" style="shape=partialRectangle;connectable=0;fillColor=none;top=0;left=0;bottom=0;right=0;editable=1;overflow=hidden;whiteSpace=wrap;html=1;fontSize=24;strokeColor=#000000;" parent="QKaa7FEPIGwUNo9bZV-P-431" vertex="1">
          <mxGeometry width="40" height="30" as="geometry">
            <mxRectangle width="40" height="30" as="alternateBounds" />
          </mxGeometry>
        </mxCell>
        <mxCell id="QKaa7FEPIGwUNo9bZV-P-433" value="TeacherID" style="shape=partialRectangle;connectable=0;fillColor=none;top=0;left=0;bottom=0;right=0;align=left;spacingLeft=6;overflow=hidden;whiteSpace=wrap;html=1;fontSize=24;strokeColor=#000000;" parent="QKaa7FEPIGwUNo9bZV-P-431" vertex="1">
          <mxGeometry x="40" width="240" height="30" as="geometry">
            <mxRectangle width="240" height="30" as="alternateBounds" />
          </mxGeometry>
        </mxCell>
        <mxCell id="QKaa7FEPIGwUNo9bZV-P-440" value="" style="shape=tableRow;horizontal=0;startSize=0;swimlaneHead=0;swimlaneBody=0;fillColor=none;collapsible=0;dropTarget=0;points=[[0,0.5],[1,0.5]];portConstraint=eastwest;top=0;left=0;right=0;bottom=0;fontSize=24;strokeColor=#000000;" parent="QKaa7FEPIGwUNo9bZV-P-424" vertex="1">
          <mxGeometry y="110" width="280" height="30" as="geometry" />
        </mxCell>
        <mxCell id="QKaa7FEPIGwUNo9bZV-P-441" value="" style="shape=partialRectangle;connectable=0;fillColor=none;top=0;left=0;bottom=0;right=0;editable=1;overflow=hidden;whiteSpace=wrap;html=1;fontSize=24;strokeColor=#000000;" parent="QKaa7FEPIGwUNo9bZV-P-440" vertex="1">
          <mxGeometry width="40" height="30" as="geometry">
            <mxRectangle width="40" height="30" as="alternateBounds" />
          </mxGeometry>
        </mxCell>
        <mxCell id="QKaa7FEPIGwUNo9bZV-P-442" value="Name" style="shape=partialRectangle;connectable=0;fillColor=none;top=0;left=0;bottom=0;right=0;align=left;spacingLeft=6;overflow=hidden;whiteSpace=wrap;html=1;fontSize=24;strokeColor=#000000;" parent="QKaa7FEPIGwUNo9bZV-P-440" vertex="1">
          <mxGeometry x="40" width="240" height="30" as="geometry">
            <mxRectangle width="240" height="30" as="alternateBounds" />
          </mxGeometry>
        </mxCell>
        <mxCell id="QKaa7FEPIGwUNo9bZV-P-443" value="" style="shape=tableRow;horizontal=0;startSize=0;swimlaneHead=0;swimlaneBody=0;fillColor=none;collapsible=0;dropTarget=0;points=[[0,0.5],[1,0.5]];portConstraint=eastwest;top=0;left=0;right=0;bottom=0;fontSize=24;strokeColor=#000000;" parent="QKaa7FEPIGwUNo9bZV-P-424" vertex="1">
          <mxGeometry y="140" width="280" height="30" as="geometry" />
        </mxCell>
        <mxCell id="QKaa7FEPIGwUNo9bZV-P-444" value="" style="shape=partialRectangle;connectable=0;fillColor=none;top=0;left=0;bottom=0;right=0;editable=1;overflow=hidden;whiteSpace=wrap;html=1;fontSize=24;strokeColor=#000000;" parent="QKaa7FEPIGwUNo9bZV-P-443" vertex="1">
          <mxGeometry width="40" height="30" as="geometry">
            <mxRectangle width="40" height="30" as="alternateBounds" />
          </mxGeometry>
        </mxCell>
        <mxCell id="QKaa7FEPIGwUNo9bZV-P-445" value="Class" style="shape=partialRectangle;connectable=0;fillColor=none;top=0;left=0;bottom=0;right=0;align=left;spacingLeft=6;overflow=hidden;whiteSpace=wrap;html=1;fontSize=24;strokeColor=#000000;" parent="QKaa7FEPIGwUNo9bZV-P-443" vertex="1">
          <mxGeometry x="40" width="240" height="30" as="geometry">
            <mxRectangle width="240" height="30" as="alternateBounds" />
          </mxGeometry>
        </mxCell>
        <mxCell id="QKaa7FEPIGwUNo9bZV-P-456" value="Teacher" style="shape=table;startSize=30;container=1;collapsible=1;childLayout=tableLayout;fixedRows=1;rowLines=0;fontStyle=1;align=center;resizeLast=1;html=1;fontSize=24;rounded=1;fillColor=#b0e3e6;strokeColor=#0e8088;" parent="1" vertex="1">
          <mxGeometry x="681.5" y="6480" width="280" height="140" as="geometry">
            <mxRectangle x="-1300" y="2560" width="100" height="40" as="alternateBounds" />
          </mxGeometry>
        </mxCell>
        <mxCell id="QKaa7FEPIGwUNo9bZV-P-457" value="" style="shape=tableRow;horizontal=0;startSize=0;swimlaneHead=0;swimlaneBody=0;fillColor=none;collapsible=0;dropTarget=0;points=[[0,0.5],[1,0.5]];portConstraint=eastwest;top=0;left=0;right=0;bottom=1;fontSize=24;strokeColor=#000000;" parent="QKaa7FEPIGwUNo9bZV-P-456" vertex="1">
          <mxGeometry y="30" width="280" height="50" as="geometry" />
        </mxCell>
        <mxCell id="QKaa7FEPIGwUNo9bZV-P-458" value="PK" style="shape=partialRectangle;connectable=0;fillColor=none;top=0;left=0;bottom=0;right=0;fontStyle=1;overflow=hidden;whiteSpace=wrap;html=1;fontSize=24;strokeColor=#000000;" parent="QKaa7FEPIGwUNo9bZV-P-457" vertex="1">
          <mxGeometry width="40" height="50" as="geometry">
            <mxRectangle width="40" height="50" as="alternateBounds" />
          </mxGeometry>
        </mxCell>
        <mxCell id="QKaa7FEPIGwUNo9bZV-P-459" value="TeacherID" style="shape=partialRectangle;connectable=0;fillColor=none;top=0;left=0;bottom=0;right=0;align=left;spacingLeft=6;fontStyle=5;overflow=hidden;whiteSpace=wrap;html=1;fontSize=24;strokeColor=#000000;" parent="QKaa7FEPIGwUNo9bZV-P-457" vertex="1">
          <mxGeometry x="40" width="240" height="50" as="geometry">
            <mxRectangle width="240" height="50" as="alternateBounds" />
          </mxGeometry>
        </mxCell>
        <mxCell id="QKaa7FEPIGwUNo9bZV-P-466" value="" style="shape=tableRow;horizontal=0;startSize=0;swimlaneHead=0;swimlaneBody=0;fillColor=none;collapsible=0;dropTarget=0;points=[[0,0.5],[1,0.5]];portConstraint=eastwest;top=0;left=0;right=0;bottom=0;fontSize=24;strokeColor=#000000;" parent="QKaa7FEPIGwUNo9bZV-P-456" vertex="1">
          <mxGeometry y="80" width="280" height="30" as="geometry" />
        </mxCell>
        <mxCell id="QKaa7FEPIGwUNo9bZV-P-467" value="" style="shape=partialRectangle;connectable=0;fillColor=none;top=0;left=0;bottom=0;right=0;editable=1;overflow=hidden;whiteSpace=wrap;html=1;fontSize=24;strokeColor=#000000;" parent="QKaa7FEPIGwUNo9bZV-P-466" vertex="1">
          <mxGeometry width="40" height="30" as="geometry">
            <mxRectangle width="40" height="30" as="alternateBounds" />
          </mxGeometry>
        </mxCell>
        <mxCell id="QKaa7FEPIGwUNo9bZV-P-468" value="AddressID" style="shape=partialRectangle;connectable=0;fillColor=none;top=0;left=0;bottom=0;right=0;align=left;spacingLeft=6;overflow=hidden;whiteSpace=wrap;html=1;fontSize=24;strokeColor=#000000;" parent="QKaa7FEPIGwUNo9bZV-P-466" vertex="1">
          <mxGeometry x="40" width="240" height="30" as="geometry">
            <mxRectangle width="240" height="30" as="alternateBounds" />
          </mxGeometry>
        </mxCell>
        <mxCell id="QKaa7FEPIGwUNo9bZV-P-469" value="" style="shape=tableRow;horizontal=0;startSize=0;swimlaneHead=0;swimlaneBody=0;fillColor=none;collapsible=0;dropTarget=0;points=[[0,0.5],[1,0.5]];portConstraint=eastwest;top=0;left=0;right=0;bottom=0;fontSize=24;strokeColor=#000000;" parent="QKaa7FEPIGwUNo9bZV-P-456" vertex="1">
          <mxGeometry y="110" width="280" height="30" as="geometry" />
        </mxCell>
        <mxCell id="QKaa7FEPIGwUNo9bZV-P-470" value="" style="shape=partialRectangle;connectable=0;fillColor=none;top=0;left=0;bottom=0;right=0;editable=1;overflow=hidden;whiteSpace=wrap;html=1;fontSize=24;strokeColor=#000000;" parent="QKaa7FEPIGwUNo9bZV-P-469" vertex="1">
          <mxGeometry width="40" height="30" as="geometry">
            <mxRectangle width="40" height="30" as="alternateBounds" />
          </mxGeometry>
        </mxCell>
        <mxCell id="QKaa7FEPIGwUNo9bZV-P-471" value="Name" style="shape=partialRectangle;connectable=0;fillColor=none;top=0;left=0;bottom=0;right=0;align=left;spacingLeft=6;overflow=hidden;whiteSpace=wrap;html=1;fontSize=24;strokeColor=#000000;" parent="QKaa7FEPIGwUNo9bZV-P-469" vertex="1">
          <mxGeometry x="40" width="240" height="30" as="geometry">
            <mxRectangle width="240" height="30" as="alternateBounds" />
          </mxGeometry>
        </mxCell>
        <mxCell id="QKaa7FEPIGwUNo9bZV-P-488" value="Student" style="shape=table;startSize=30;container=1;collapsible=1;childLayout=tableLayout;fixedRows=1;rowLines=0;fontStyle=1;align=center;resizeLast=1;html=1;fontSize=24;rounded=1;fillColor=#bac8d3;strokeColor=#23445d;" parent="1" vertex="1">
          <mxGeometry x="678.5" y="6640" width="280" height="320" as="geometry">
            <mxRectangle x="-1300" y="2560" width="100" height="40" as="alternateBounds" />
          </mxGeometry>
        </mxCell>
        <mxCell id="QKaa7FEPIGwUNo9bZV-P-489" value="" style="shape=tableRow;horizontal=0;startSize=0;swimlaneHead=0;swimlaneBody=0;fillColor=none;collapsible=0;dropTarget=0;points=[[0,0.5],[1,0.5]];portConstraint=eastwest;top=0;left=0;right=0;bottom=1;fontSize=24;strokeColor=#000000;" parent="QKaa7FEPIGwUNo9bZV-P-488" vertex="1">
          <mxGeometry y="30" width="280" height="50" as="geometry" />
        </mxCell>
        <mxCell id="QKaa7FEPIGwUNo9bZV-P-490" value="PK" style="shape=partialRectangle;connectable=0;fillColor=none;top=0;left=0;bottom=0;right=0;fontStyle=1;overflow=hidden;whiteSpace=wrap;html=1;fontSize=24;strokeColor=#000000;" parent="QKaa7FEPIGwUNo9bZV-P-489" vertex="1">
          <mxGeometry width="40" height="50" as="geometry">
            <mxRectangle width="40" height="50" as="alternateBounds" />
          </mxGeometry>
        </mxCell>
        <mxCell id="QKaa7FEPIGwUNo9bZV-P-491" value="SubjectID" style="shape=partialRectangle;connectable=0;fillColor=none;top=0;left=0;bottom=0;right=0;align=left;spacingLeft=6;fontStyle=5;overflow=hidden;whiteSpace=wrap;html=1;fontSize=24;strokeColor=#000000;" parent="QKaa7FEPIGwUNo9bZV-P-489" vertex="1">
          <mxGeometry x="40" width="240" height="50" as="geometry">
            <mxRectangle width="240" height="50" as="alternateBounds" />
          </mxGeometry>
        </mxCell>
        <mxCell id="QKaa7FEPIGwUNo9bZV-P-498" value="" style="shape=tableRow;horizontal=0;startSize=0;swimlaneHead=0;swimlaneBody=0;fillColor=none;collapsible=0;dropTarget=0;points=[[0,0.5],[1,0.5]];portConstraint=eastwest;top=0;left=0;right=0;bottom=0;fontSize=24;strokeColor=#000000;" parent="QKaa7FEPIGwUNo9bZV-P-488" vertex="1">
          <mxGeometry y="80" width="280" height="30" as="geometry" />
        </mxCell>
        <mxCell id="QKaa7FEPIGwUNo9bZV-P-499" value="" style="shape=partialRectangle;connectable=0;fillColor=none;top=0;left=0;bottom=0;right=0;editable=1;overflow=hidden;whiteSpace=wrap;html=1;fontSize=24;strokeColor=#000000;" parent="QKaa7FEPIGwUNo9bZV-P-498" vertex="1">
          <mxGeometry width="40" height="30" as="geometry">
            <mxRectangle width="40" height="30" as="alternateBounds" />
          </mxGeometry>
        </mxCell>
        <mxCell id="QKaa7FEPIGwUNo9bZV-P-500" value="SubjectID" style="shape=partialRectangle;connectable=0;fillColor=none;top=0;left=0;bottom=0;right=0;align=left;spacingLeft=6;overflow=hidden;whiteSpace=wrap;html=1;fontSize=24;strokeColor=#000000;" parent="QKaa7FEPIGwUNo9bZV-P-498" vertex="1">
          <mxGeometry x="40" width="240" height="30" as="geometry">
            <mxRectangle width="240" height="30" as="alternateBounds" />
          </mxGeometry>
        </mxCell>
        <mxCell id="QKaa7FEPIGwUNo9bZV-P-501" value="" style="shape=tableRow;horizontal=0;startSize=0;swimlaneHead=0;swimlaneBody=0;fillColor=none;collapsible=0;dropTarget=0;points=[[0,0.5],[1,0.5]];portConstraint=eastwest;top=0;left=0;right=0;bottom=0;fontSize=24;strokeColor=#000000;" parent="QKaa7FEPIGwUNo9bZV-P-488" vertex="1">
          <mxGeometry y="110" width="280" height="30" as="geometry" />
        </mxCell>
        <mxCell id="QKaa7FEPIGwUNo9bZV-P-502" value="" style="shape=partialRectangle;connectable=0;fillColor=none;top=0;left=0;bottom=0;right=0;editable=1;overflow=hidden;whiteSpace=wrap;html=1;fontSize=24;strokeColor=#000000;" parent="QKaa7FEPIGwUNo9bZV-P-501" vertex="1">
          <mxGeometry width="40" height="30" as="geometry">
            <mxRectangle width="40" height="30" as="alternateBounds" />
          </mxGeometry>
        </mxCell>
        <mxCell id="QKaa7FEPIGwUNo9bZV-P-503" value="AddressID" style="shape=partialRectangle;connectable=0;fillColor=none;top=0;left=0;bottom=0;right=0;align=left;spacingLeft=6;overflow=hidden;whiteSpace=wrap;html=1;fontSize=24;strokeColor=#000000;" parent="QKaa7FEPIGwUNo9bZV-P-501" vertex="1">
          <mxGeometry x="40" width="240" height="30" as="geometry">
            <mxRectangle width="240" height="30" as="alternateBounds" />
          </mxGeometry>
        </mxCell>
        <mxCell id="QKaa7FEPIGwUNo9bZV-P-504" value="" style="shape=tableRow;horizontal=0;startSize=0;swimlaneHead=0;swimlaneBody=0;fillColor=none;collapsible=0;dropTarget=0;points=[[0,0.5],[1,0.5]];portConstraint=eastwest;top=0;left=0;right=0;bottom=0;fontSize=24;strokeColor=#000000;" parent="QKaa7FEPIGwUNo9bZV-P-488" vertex="1">
          <mxGeometry y="140" width="280" height="30" as="geometry" />
        </mxCell>
        <mxCell id="QKaa7FEPIGwUNo9bZV-P-505" value="" style="shape=partialRectangle;connectable=0;fillColor=none;top=0;left=0;bottom=0;right=0;editable=1;overflow=hidden;whiteSpace=wrap;html=1;fontSize=24;strokeColor=#000000;" parent="QKaa7FEPIGwUNo9bZV-P-504" vertex="1">
          <mxGeometry width="40" height="30" as="geometry">
            <mxRectangle width="40" height="30" as="alternateBounds" />
          </mxGeometry>
        </mxCell>
        <mxCell id="QKaa7FEPIGwUNo9bZV-P-506" value="Group" style="shape=partialRectangle;connectable=0;fillColor=none;top=0;left=0;bottom=0;right=0;align=left;spacingLeft=6;overflow=hidden;whiteSpace=wrap;html=1;fontSize=24;strokeColor=#000000;" parent="QKaa7FEPIGwUNo9bZV-P-504" vertex="1">
          <mxGeometry x="40" width="240" height="30" as="geometry">
            <mxRectangle width="240" height="30" as="alternateBounds" />
          </mxGeometry>
        </mxCell>
        <mxCell id="QKaa7FEPIGwUNo9bZV-P-507" value="" style="shape=tableRow;horizontal=0;startSize=0;swimlaneHead=0;swimlaneBody=0;fillColor=none;collapsible=0;dropTarget=0;points=[[0,0.5],[1,0.5]];portConstraint=eastwest;top=0;left=0;right=0;bottom=0;fontSize=24;strokeColor=#000000;" parent="QKaa7FEPIGwUNo9bZV-P-488" vertex="1">
          <mxGeometry y="170" width="280" height="30" as="geometry" />
        </mxCell>
        <mxCell id="QKaa7FEPIGwUNo9bZV-P-508" value="" style="shape=partialRectangle;connectable=0;fillColor=none;top=0;left=0;bottom=0;right=0;editable=1;overflow=hidden;whiteSpace=wrap;html=1;fontSize=24;strokeColor=#000000;" parent="QKaa7FEPIGwUNo9bZV-P-507" vertex="1">
          <mxGeometry width="40" height="30" as="geometry">
            <mxRectangle width="40" height="30" as="alternateBounds" />
          </mxGeometry>
        </mxCell>
        <mxCell id="QKaa7FEPIGwUNo9bZV-P-509" value="First_name" style="shape=partialRectangle;connectable=0;fillColor=none;top=0;left=0;bottom=0;right=0;align=left;spacingLeft=6;overflow=hidden;whiteSpace=wrap;html=1;fontSize=24;strokeColor=#000000;" parent="QKaa7FEPIGwUNo9bZV-P-507" vertex="1">
          <mxGeometry x="40" width="240" height="30" as="geometry">
            <mxRectangle width="240" height="30" as="alternateBounds" />
          </mxGeometry>
        </mxCell>
        <mxCell id="QKaa7FEPIGwUNo9bZV-P-510" value="" style="shape=tableRow;horizontal=0;startSize=0;swimlaneHead=0;swimlaneBody=0;fillColor=none;collapsible=0;dropTarget=0;points=[[0,0.5],[1,0.5]];portConstraint=eastwest;top=0;left=0;right=0;bottom=0;fontSize=24;strokeColor=#000000;" parent="QKaa7FEPIGwUNo9bZV-P-488" vertex="1">
          <mxGeometry y="200" width="280" height="30" as="geometry" />
        </mxCell>
        <mxCell id="QKaa7FEPIGwUNo9bZV-P-511" value="" style="shape=partialRectangle;connectable=0;fillColor=none;top=0;left=0;bottom=0;right=0;editable=1;overflow=hidden;whiteSpace=wrap;html=1;fontSize=24;strokeColor=#000000;" parent="QKaa7FEPIGwUNo9bZV-P-510" vertex="1">
          <mxGeometry width="40" height="30" as="geometry">
            <mxRectangle width="40" height="30" as="alternateBounds" />
          </mxGeometry>
        </mxCell>
        <mxCell id="QKaa7FEPIGwUNo9bZV-P-512" value="Last_name" style="shape=partialRectangle;connectable=0;fillColor=none;top=0;left=0;bottom=0;right=0;align=left;spacingLeft=6;overflow=hidden;whiteSpace=wrap;html=1;fontSize=24;strokeColor=#000000;" parent="QKaa7FEPIGwUNo9bZV-P-510" vertex="1">
          <mxGeometry x="40" width="240" height="30" as="geometry">
            <mxRectangle width="240" height="30" as="alternateBounds" />
          </mxGeometry>
        </mxCell>
        <mxCell id="QKaa7FEPIGwUNo9bZV-P-513" value="" style="shape=tableRow;horizontal=0;startSize=0;swimlaneHead=0;swimlaneBody=0;fillColor=none;collapsible=0;dropTarget=0;points=[[0,0.5],[1,0.5]];portConstraint=eastwest;top=0;left=0;right=0;bottom=0;fontSize=24;strokeColor=#000000;" parent="QKaa7FEPIGwUNo9bZV-P-488" vertex="1">
          <mxGeometry y="230" width="280" height="30" as="geometry" />
        </mxCell>
        <mxCell id="QKaa7FEPIGwUNo9bZV-P-514" value="" style="shape=partialRectangle;connectable=0;fillColor=none;top=0;left=0;bottom=0;right=0;editable=1;overflow=hidden;whiteSpace=wrap;html=1;fontSize=24;strokeColor=#000000;" parent="QKaa7FEPIGwUNo9bZV-P-513" vertex="1">
          <mxGeometry width="40" height="30" as="geometry">
            <mxRectangle width="40" height="30" as="alternateBounds" />
          </mxGeometry>
        </mxCell>
        <mxCell id="QKaa7FEPIGwUNo9bZV-P-515" value="Gender" style="shape=partialRectangle;connectable=0;fillColor=none;top=0;left=0;bottom=0;right=0;align=left;spacingLeft=6;overflow=hidden;whiteSpace=wrap;html=1;fontSize=24;strokeColor=#000000;" parent="QKaa7FEPIGwUNo9bZV-P-513" vertex="1">
          <mxGeometry x="40" width="240" height="30" as="geometry">
            <mxRectangle width="240" height="30" as="alternateBounds" />
          </mxGeometry>
        </mxCell>
        <mxCell id="QKaa7FEPIGwUNo9bZV-P-516" value="" style="shape=tableRow;horizontal=0;startSize=0;swimlaneHead=0;swimlaneBody=0;fillColor=none;collapsible=0;dropTarget=0;points=[[0,0.5],[1,0.5]];portConstraint=eastwest;top=0;left=0;right=0;bottom=0;fontSize=24;strokeColor=#000000;" parent="QKaa7FEPIGwUNo9bZV-P-488" vertex="1">
          <mxGeometry y="260" width="280" height="30" as="geometry" />
        </mxCell>
        <mxCell id="QKaa7FEPIGwUNo9bZV-P-517" value="" style="shape=partialRectangle;connectable=0;fillColor=none;top=0;left=0;bottom=0;right=0;editable=1;overflow=hidden;whiteSpace=wrap;html=1;fontSize=24;strokeColor=#000000;" parent="QKaa7FEPIGwUNo9bZV-P-516" vertex="1">
          <mxGeometry width="40" height="30" as="geometry">
            <mxRectangle width="40" height="30" as="alternateBounds" />
          </mxGeometry>
        </mxCell>
        <mxCell id="QKaa7FEPIGwUNo9bZV-P-518" value="Email" style="shape=partialRectangle;connectable=0;fillColor=none;top=0;left=0;bottom=0;right=0;align=left;spacingLeft=6;overflow=hidden;whiteSpace=wrap;html=1;fontSize=24;strokeColor=#000000;" parent="QKaa7FEPIGwUNo9bZV-P-516" vertex="1">
          <mxGeometry x="40" width="240" height="30" as="geometry">
            <mxRectangle width="240" height="30" as="alternateBounds" />
          </mxGeometry>
        </mxCell>
        <mxCell id="QKaa7FEPIGwUNo9bZV-P-519" value="" style="shape=tableRow;horizontal=0;startSize=0;swimlaneHead=0;swimlaneBody=0;fillColor=none;collapsible=0;dropTarget=0;points=[[0,0.5],[1,0.5]];portConstraint=eastwest;top=0;left=0;right=0;bottom=0;fontSize=24;strokeColor=#000000;" parent="QKaa7FEPIGwUNo9bZV-P-488" vertex="1">
          <mxGeometry y="290" width="280" height="30" as="geometry" />
        </mxCell>
        <mxCell id="QKaa7FEPIGwUNo9bZV-P-520" value="" style="shape=partialRectangle;connectable=0;fillColor=none;top=0;left=0;bottom=0;right=0;editable=1;overflow=hidden;whiteSpace=wrap;html=1;fontSize=24;strokeColor=#000000;" parent="QKaa7FEPIGwUNo9bZV-P-519" vertex="1">
          <mxGeometry width="40" height="30" as="geometry">
            <mxRectangle width="40" height="30" as="alternateBounds" />
          </mxGeometry>
        </mxCell>
        <mxCell id="QKaa7FEPIGwUNo9bZV-P-521" value="DoB" style="shape=partialRectangle;connectable=0;fillColor=none;top=0;left=0;bottom=0;right=0;align=left;spacingLeft=6;overflow=hidden;whiteSpace=wrap;html=1;fontSize=24;strokeColor=#000000;" parent="QKaa7FEPIGwUNo9bZV-P-519" vertex="1">
          <mxGeometry x="40" width="240" height="30" as="geometry">
            <mxRectangle width="240" height="30" as="alternateBounds" />
          </mxGeometry>
        </mxCell>
        <mxCell id="QKaa7FEPIGwUNo9bZV-P-522" value="Attendant" style="shape=table;startSize=30;container=1;collapsible=1;childLayout=tableLayout;fixedRows=1;rowLines=0;fontStyle=1;align=center;resizeLast=1;html=1;fontSize=24;rounded=1;fillColor=#d5e8d4;strokeColor=#82b366;" parent="1" vertex="1">
          <mxGeometry x="1022.5" y="6800" width="280" height="170" as="geometry">
            <mxRectangle x="-1300" y="2560" width="100" height="40" as="alternateBounds" />
          </mxGeometry>
        </mxCell>
        <mxCell id="QKaa7FEPIGwUNo9bZV-P-523" value="" style="shape=tableRow;horizontal=0;startSize=0;swimlaneHead=0;swimlaneBody=0;fillColor=none;collapsible=0;dropTarget=0;points=[[0,0.5],[1,0.5]];portConstraint=eastwest;top=0;left=0;right=0;bottom=1;fontSize=24;strokeColor=#000000;" parent="QKaa7FEPIGwUNo9bZV-P-522" vertex="1">
          <mxGeometry y="30" width="280" height="50" as="geometry" />
        </mxCell>
        <mxCell id="QKaa7FEPIGwUNo9bZV-P-524" value="PK" style="shape=partialRectangle;connectable=0;fillColor=none;top=0;left=0;bottom=0;right=0;fontStyle=1;overflow=hidden;whiteSpace=wrap;html=1;fontSize=24;strokeColor=#000000;" parent="QKaa7FEPIGwUNo9bZV-P-523" vertex="1">
          <mxGeometry width="40" height="50" as="geometry">
            <mxRectangle width="40" height="50" as="alternateBounds" />
          </mxGeometry>
        </mxCell>
        <mxCell id="QKaa7FEPIGwUNo9bZV-P-525" value="AttendantID" style="shape=partialRectangle;connectable=0;fillColor=none;top=0;left=0;bottom=0;right=0;align=left;spacingLeft=6;fontStyle=5;overflow=hidden;whiteSpace=wrap;html=1;fontSize=24;strokeColor=#000000;" parent="QKaa7FEPIGwUNo9bZV-P-523" vertex="1">
          <mxGeometry x="40" width="240" height="50" as="geometry">
            <mxRectangle width="240" height="50" as="alternateBounds" />
          </mxGeometry>
        </mxCell>
        <mxCell id="QKaa7FEPIGwUNo9bZV-P-529" value="" style="shape=tableRow;horizontal=0;startSize=0;swimlaneHead=0;swimlaneBody=0;fillColor=none;collapsible=0;dropTarget=0;points=[[0,0.5],[1,0.5]];portConstraint=eastwest;top=0;left=0;right=0;bottom=0;fontSize=24;strokeColor=#000000;" parent="QKaa7FEPIGwUNo9bZV-P-522" vertex="1">
          <mxGeometry y="80" width="280" height="30" as="geometry" />
        </mxCell>
        <mxCell id="QKaa7FEPIGwUNo9bZV-P-530" value="" style="shape=partialRectangle;connectable=0;fillColor=none;top=0;left=0;bottom=0;right=0;editable=1;overflow=hidden;whiteSpace=wrap;html=1;fontSize=24;strokeColor=#000000;" parent="QKaa7FEPIGwUNo9bZV-P-529" vertex="1">
          <mxGeometry width="40" height="30" as="geometry">
            <mxRectangle width="40" height="30" as="alternateBounds" />
          </mxGeometry>
        </mxCell>
        <mxCell id="QKaa7FEPIGwUNo9bZV-P-531" value="StudentID" style="shape=partialRectangle;connectable=0;fillColor=none;top=0;left=0;bottom=0;right=0;align=left;spacingLeft=6;overflow=hidden;whiteSpace=wrap;html=1;fontSize=24;strokeColor=#000000;" parent="QKaa7FEPIGwUNo9bZV-P-529" vertex="1">
          <mxGeometry x="40" width="240" height="30" as="geometry">
            <mxRectangle width="240" height="30" as="alternateBounds" />
          </mxGeometry>
        </mxCell>
        <mxCell id="QKaa7FEPIGwUNo9bZV-P-532" value="" style="shape=tableRow;horizontal=0;startSize=0;swimlaneHead=0;swimlaneBody=0;fillColor=none;collapsible=0;dropTarget=0;points=[[0,0.5],[1,0.5]];portConstraint=eastwest;top=0;left=0;right=0;bottom=0;fontSize=24;strokeColor=#000000;" parent="QKaa7FEPIGwUNo9bZV-P-522" vertex="1">
          <mxGeometry y="110" width="280" height="30" as="geometry" />
        </mxCell>
        <mxCell id="QKaa7FEPIGwUNo9bZV-P-533" value="" style="shape=partialRectangle;connectable=0;fillColor=none;top=0;left=0;bottom=0;right=0;editable=1;overflow=hidden;whiteSpace=wrap;html=1;fontSize=24;strokeColor=#000000;" parent="QKaa7FEPIGwUNo9bZV-P-532" vertex="1">
          <mxGeometry width="40" height="30" as="geometry">
            <mxRectangle width="40" height="30" as="alternateBounds" />
          </mxGeometry>
        </mxCell>
        <mxCell id="QKaa7FEPIGwUNo9bZV-P-534" value="Time" style="shape=partialRectangle;connectable=0;fillColor=none;top=0;left=0;bottom=0;right=0;align=left;spacingLeft=6;overflow=hidden;whiteSpace=wrap;html=1;fontSize=24;strokeColor=#000000;" parent="QKaa7FEPIGwUNo9bZV-P-532" vertex="1">
          <mxGeometry x="40" width="240" height="30" as="geometry">
            <mxRectangle width="240" height="30" as="alternateBounds" />
          </mxGeometry>
        </mxCell>
        <mxCell id="XgW9YFQhOkf5y9MLVBpn-28" value="" style="shape=tableRow;horizontal=0;startSize=0;swimlaneHead=0;swimlaneBody=0;fillColor=none;collapsible=0;dropTarget=0;points=[[0,0.5],[1,0.5]];portConstraint=eastwest;top=0;left=0;right=0;bottom=0;fontSize=24;strokeColor=#000000;" parent="QKaa7FEPIGwUNo9bZV-P-522" vertex="1">
          <mxGeometry y="140" width="280" height="30" as="geometry" />
        </mxCell>
        <mxCell id="XgW9YFQhOkf5y9MLVBpn-29" value="" style="shape=partialRectangle;connectable=0;fillColor=none;top=0;left=0;bottom=0;right=0;editable=1;overflow=hidden;whiteSpace=wrap;html=1;fontSize=24;strokeColor=#000000;" parent="XgW9YFQhOkf5y9MLVBpn-28" vertex="1">
          <mxGeometry width="40" height="30" as="geometry">
            <mxRectangle width="40" height="30" as="alternateBounds" />
          </mxGeometry>
        </mxCell>
        <mxCell id="XgW9YFQhOkf5y9MLVBpn-30" value="Date" style="shape=partialRectangle;connectable=0;fillColor=none;top=0;left=0;bottom=0;right=0;align=left;spacingLeft=6;overflow=hidden;whiteSpace=wrap;html=1;fontSize=24;strokeColor=#000000;" parent="XgW9YFQhOkf5y9MLVBpn-28" vertex="1">
          <mxGeometry x="40" width="240" height="30" as="geometry">
            <mxRectangle width="240" height="30" as="alternateBounds" />
          </mxGeometry>
        </mxCell>
        <mxCell id="QKaa7FEPIGwUNo9bZV-P-535" value="Address" style="shape=table;startSize=30;container=1;collapsible=1;childLayout=tableLayout;fixedRows=1;rowLines=0;fontStyle=1;align=center;resizeLast=1;html=1;fontSize=24;rounded=1;fillColor=#ffff88;strokeColor=#36393d;" parent="1" vertex="1">
          <mxGeometry x="1022.5" y="6480" width="280" height="260" as="geometry">
            <mxRectangle x="-1300" y="2560" width="100" height="40" as="alternateBounds" />
          </mxGeometry>
        </mxCell>
        <mxCell id="QKaa7FEPIGwUNo9bZV-P-536" value="" style="shape=tableRow;horizontal=0;startSize=0;swimlaneHead=0;swimlaneBody=0;fillColor=none;collapsible=0;dropTarget=0;points=[[0,0.5],[1,0.5]];portConstraint=eastwest;top=0;left=0;right=0;bottom=1;fontSize=24;strokeColor=#000000;" parent="QKaa7FEPIGwUNo9bZV-P-535" vertex="1">
          <mxGeometry y="30" width="280" height="50" as="geometry" />
        </mxCell>
        <mxCell id="QKaa7FEPIGwUNo9bZV-P-537" value="PK" style="shape=partialRectangle;connectable=0;fillColor=none;top=0;left=0;bottom=0;right=0;fontStyle=1;overflow=hidden;whiteSpace=wrap;html=1;fontSize=24;strokeColor=#000000;" parent="QKaa7FEPIGwUNo9bZV-P-536" vertex="1">
          <mxGeometry width="40" height="50" as="geometry">
            <mxRectangle width="40" height="50" as="alternateBounds" />
          </mxGeometry>
        </mxCell>
        <mxCell id="QKaa7FEPIGwUNo9bZV-P-538" value="AddressID" style="shape=partialRectangle;connectable=0;fillColor=none;top=0;left=0;bottom=0;right=0;align=left;spacingLeft=6;fontStyle=5;overflow=hidden;whiteSpace=wrap;html=1;fontSize=24;strokeColor=#000000;" parent="QKaa7FEPIGwUNo9bZV-P-536" vertex="1">
          <mxGeometry x="40" width="240" height="50" as="geometry">
            <mxRectangle width="240" height="50" as="alternateBounds" />
          </mxGeometry>
        </mxCell>
        <mxCell id="QKaa7FEPIGwUNo9bZV-P-539" value="" style="shape=tableRow;horizontal=0;startSize=0;swimlaneHead=0;swimlaneBody=0;fillColor=none;collapsible=0;dropTarget=0;points=[[0,0.5],[1,0.5]];portConstraint=eastwest;top=0;left=0;right=0;bottom=0;fontSize=24;strokeColor=#000000;" parent="QKaa7FEPIGwUNo9bZV-P-535" vertex="1">
          <mxGeometry y="80" width="280" height="30" as="geometry" />
        </mxCell>
        <mxCell id="QKaa7FEPIGwUNo9bZV-P-540" value="" style="shape=partialRectangle;connectable=0;fillColor=none;top=0;left=0;bottom=0;right=0;editable=1;overflow=hidden;whiteSpace=wrap;html=1;fontSize=24;strokeColor=#000000;" parent="QKaa7FEPIGwUNo9bZV-P-539" vertex="1">
          <mxGeometry width="40" height="30" as="geometry">
            <mxRectangle width="40" height="30" as="alternateBounds" />
          </mxGeometry>
        </mxCell>
        <mxCell id="QKaa7FEPIGwUNo9bZV-P-541" value="Province" style="shape=partialRectangle;connectable=0;fillColor=none;top=0;left=0;bottom=0;right=0;align=left;spacingLeft=6;overflow=hidden;whiteSpace=wrap;html=1;fontSize=24;strokeColor=#000000;" parent="QKaa7FEPIGwUNo9bZV-P-539" vertex="1">
          <mxGeometry x="40" width="240" height="30" as="geometry">
            <mxRectangle width="240" height="30" as="alternateBounds" />
          </mxGeometry>
        </mxCell>
        <mxCell id="QKaa7FEPIGwUNo9bZV-P-542" value="" style="shape=tableRow;horizontal=0;startSize=0;swimlaneHead=0;swimlaneBody=0;fillColor=none;collapsible=0;dropTarget=0;points=[[0,0.5],[1,0.5]];portConstraint=eastwest;top=0;left=0;right=0;bottom=0;fontSize=24;strokeColor=#000000;" parent="QKaa7FEPIGwUNo9bZV-P-535" vertex="1">
          <mxGeometry y="110" width="280" height="30" as="geometry" />
        </mxCell>
        <mxCell id="QKaa7FEPIGwUNo9bZV-P-543" value="" style="shape=partialRectangle;connectable=0;fillColor=none;top=0;left=0;bottom=0;right=0;editable=1;overflow=hidden;whiteSpace=wrap;html=1;fontSize=24;strokeColor=#000000;" parent="QKaa7FEPIGwUNo9bZV-P-542" vertex="1">
          <mxGeometry width="40" height="30" as="geometry">
            <mxRectangle width="40" height="30" as="alternateBounds" />
          </mxGeometry>
        </mxCell>
        <mxCell id="QKaa7FEPIGwUNo9bZV-P-544" value="District" style="shape=partialRectangle;connectable=0;fillColor=none;top=0;left=0;bottom=0;right=0;align=left;spacingLeft=6;overflow=hidden;whiteSpace=wrap;html=1;fontSize=24;strokeColor=#000000;" parent="QKaa7FEPIGwUNo9bZV-P-542" vertex="1">
          <mxGeometry x="40" width="240" height="30" as="geometry">
            <mxRectangle width="240" height="30" as="alternateBounds" />
          </mxGeometry>
        </mxCell>
        <mxCell id="QKaa7FEPIGwUNo9bZV-P-545" value="" style="shape=tableRow;horizontal=0;startSize=0;swimlaneHead=0;swimlaneBody=0;fillColor=none;collapsible=0;dropTarget=0;points=[[0,0.5],[1,0.5]];portConstraint=eastwest;top=0;left=0;right=0;bottom=0;fontSize=24;strokeColor=#000000;" parent="QKaa7FEPIGwUNo9bZV-P-535" vertex="1">
          <mxGeometry y="140" width="280" height="30" as="geometry" />
        </mxCell>
        <mxCell id="QKaa7FEPIGwUNo9bZV-P-546" value="" style="shape=partialRectangle;connectable=0;fillColor=none;top=0;left=0;bottom=0;right=0;editable=1;overflow=hidden;whiteSpace=wrap;html=1;fontSize=24;strokeColor=#000000;" parent="QKaa7FEPIGwUNo9bZV-P-545" vertex="1">
          <mxGeometry width="40" height="30" as="geometry">
            <mxRectangle width="40" height="30" as="alternateBounds" />
          </mxGeometry>
        </mxCell>
        <mxCell id="QKaa7FEPIGwUNo9bZV-P-547" value="Commune" style="shape=partialRectangle;connectable=0;fillColor=none;top=0;left=0;bottom=0;right=0;align=left;spacingLeft=6;overflow=hidden;whiteSpace=wrap;html=1;fontSize=24;strokeColor=#000000;" parent="QKaa7FEPIGwUNo9bZV-P-545" vertex="1">
          <mxGeometry x="40" width="240" height="30" as="geometry">
            <mxRectangle width="240" height="30" as="alternateBounds" />
          </mxGeometry>
        </mxCell>
        <mxCell id="QKaa7FEPIGwUNo9bZV-P-548" value="" style="shape=tableRow;horizontal=0;startSize=0;swimlaneHead=0;swimlaneBody=0;fillColor=none;collapsible=0;dropTarget=0;points=[[0,0.5],[1,0.5]];portConstraint=eastwest;top=0;left=0;right=0;bottom=0;fontSize=24;strokeColor=#000000;" parent="QKaa7FEPIGwUNo9bZV-P-535" vertex="1">
          <mxGeometry y="170" width="280" height="30" as="geometry" />
        </mxCell>
        <mxCell id="QKaa7FEPIGwUNo9bZV-P-549" value="" style="shape=partialRectangle;connectable=0;fillColor=none;top=0;left=0;bottom=0;right=0;editable=1;overflow=hidden;whiteSpace=wrap;html=1;fontSize=24;strokeColor=#000000;" parent="QKaa7FEPIGwUNo9bZV-P-548" vertex="1">
          <mxGeometry width="40" height="30" as="geometry">
            <mxRectangle width="40" height="30" as="alternateBounds" />
          </mxGeometry>
        </mxCell>
        <mxCell id="QKaa7FEPIGwUNo9bZV-P-550" value="Village" style="shape=partialRectangle;connectable=0;fillColor=none;top=0;left=0;bottom=0;right=0;align=left;spacingLeft=6;overflow=hidden;whiteSpace=wrap;html=1;fontSize=24;strokeColor=#000000;" parent="QKaa7FEPIGwUNo9bZV-P-548" vertex="1">
          <mxGeometry x="40" width="240" height="30" as="geometry">
            <mxRectangle width="240" height="30" as="alternateBounds" />
          </mxGeometry>
        </mxCell>
        <mxCell id="QKaa7FEPIGwUNo9bZV-P-551" value="" style="shape=tableRow;horizontal=0;startSize=0;swimlaneHead=0;swimlaneBody=0;fillColor=none;collapsible=0;dropTarget=0;points=[[0,0.5],[1,0.5]];portConstraint=eastwest;top=0;left=0;right=0;bottom=0;fontSize=24;strokeColor=#000000;" parent="QKaa7FEPIGwUNo9bZV-P-535" vertex="1">
          <mxGeometry y="200" width="280" height="30" as="geometry" />
        </mxCell>
        <mxCell id="QKaa7FEPIGwUNo9bZV-P-552" value="" style="shape=partialRectangle;connectable=0;fillColor=none;top=0;left=0;bottom=0;right=0;editable=1;overflow=hidden;whiteSpace=wrap;html=1;fontSize=24;strokeColor=#000000;" parent="QKaa7FEPIGwUNo9bZV-P-551" vertex="1">
          <mxGeometry width="40" height="30" as="geometry">
            <mxRectangle width="40" height="30" as="alternateBounds" />
          </mxGeometry>
        </mxCell>
        <mxCell id="QKaa7FEPIGwUNo9bZV-P-553" value="Home" style="shape=partialRectangle;connectable=0;fillColor=none;top=0;left=0;bottom=0;right=0;align=left;spacingLeft=6;overflow=hidden;whiteSpace=wrap;html=1;fontSize=24;strokeColor=#000000;" parent="QKaa7FEPIGwUNo9bZV-P-551" vertex="1">
          <mxGeometry x="40" width="240" height="30" as="geometry">
            <mxRectangle width="240" height="30" as="alternateBounds" />
          </mxGeometry>
        </mxCell>
        <mxCell id="QKaa7FEPIGwUNo9bZV-P-554" value="" style="shape=tableRow;horizontal=0;startSize=0;swimlaneHead=0;swimlaneBody=0;fillColor=none;collapsible=0;dropTarget=0;points=[[0,0.5],[1,0.5]];portConstraint=eastwest;top=0;left=0;right=0;bottom=0;fontSize=24;strokeColor=#000000;" parent="QKaa7FEPIGwUNo9bZV-P-535" vertex="1">
          <mxGeometry y="230" width="280" height="30" as="geometry" />
        </mxCell>
        <mxCell id="QKaa7FEPIGwUNo9bZV-P-555" value="" style="shape=partialRectangle;connectable=0;fillColor=none;top=0;left=0;bottom=0;right=0;editable=1;overflow=hidden;whiteSpace=wrap;html=1;fontSize=24;strokeColor=#000000;" parent="QKaa7FEPIGwUNo9bZV-P-554" vertex="1">
          <mxGeometry width="40" height="30" as="geometry">
            <mxRectangle width="40" height="30" as="alternateBounds" />
          </mxGeometry>
        </mxCell>
        <mxCell id="QKaa7FEPIGwUNo9bZV-P-556" value="Street" style="shape=partialRectangle;connectable=0;fillColor=none;top=0;left=0;bottom=0;right=0;align=left;spacingLeft=6;overflow=hidden;whiteSpace=wrap;html=1;fontSize=24;strokeColor=#000000;" parent="QKaa7FEPIGwUNo9bZV-P-554" vertex="1">
          <mxGeometry x="40" width="240" height="30" as="geometry">
            <mxRectangle width="240" height="30" as="alternateBounds" />
          </mxGeometry>
        </mxCell>
        <mxCell id="QKaa7FEPIGwUNo9bZV-P-613" value="" style="edgeStyle=entityRelationEdgeStyle;fontSize=12;html=1;endArrow=ERoneToMany;rounded=0;startSize=8;endSize=8;curved=1;exitX=0;exitY=0.5;exitDx=0;exitDy=0;entryX=1;entryY=0.5;entryDx=0;entryDy=0;" parent="1" source="QKaa7FEPIGwUNo9bZV-P-457" target="QKaa7FEPIGwUNo9bZV-P-431" edge="1">
          <mxGeometry width="100" height="100" relative="1" as="geometry">
            <mxPoint x="42.75" y="6765" as="sourcePoint" />
            <mxPoint x="241.5" y="6740" as="targetPoint" />
          </mxGeometry>
        </mxCell>
        <mxCell id="QKaa7FEPIGwUNo9bZV-P-633" value="" style="edgeStyle=entityRelationEdgeStyle;fontSize=12;html=1;endArrow=ERmandOne;startArrow=ERmandOne;rounded=0;startSize=8;endSize=8;curved=1;" parent="1" source="QKaa7FEPIGwUNo9bZV-P-466" target="QKaa7FEPIGwUNo9bZV-P-536" edge="1">
          <mxGeometry width="100" height="100" relative="1" as="geometry">
            <mxPoint x="682.75" y="7045" as="sourcePoint" />
            <mxPoint x="782.75" y="6945" as="targetPoint" />
          </mxGeometry>
        </mxCell>
        <mxCell id="QKaa7FEPIGwUNo9bZV-P-634" value="" style="edgeStyle=entityRelationEdgeStyle;fontSize=12;html=1;endArrow=ERmandOne;startArrow=ERmandOne;rounded=0;startSize=8;endSize=8;curved=1;" parent="1" source="QKaa7FEPIGwUNo9bZV-P-501" target="QKaa7FEPIGwUNo9bZV-P-536" edge="1">
          <mxGeometry width="100" height="100" relative="1" as="geometry">
            <mxPoint x="662.75" y="6740" as="sourcePoint" />
            <mxPoint x="1120.75" y="6813" as="targetPoint" />
          </mxGeometry>
        </mxCell>
        <mxCell id="QKaa7FEPIGwUNo9bZV-P-637" value="" style="edgeStyle=entityRelationEdgeStyle;fontSize=12;html=1;endArrow=ERoneToMany;rounded=0;startSize=8;endSize=8;curved=1;" parent="1" source="QKaa7FEPIGwUNo9bZV-P-523" target="QKaa7FEPIGwUNo9bZV-P-504" edge="1">
          <mxGeometry width="100" height="100" relative="1" as="geometry">
            <mxPoint x="1027.75" y="7497.5" as="sourcePoint" />
            <mxPoint x="1137.75" y="7277.5" as="targetPoint" />
          </mxGeometry>
        </mxCell>
        <mxCell id="XgW9YFQhOkf5y9MLVBpn-7" value="Class" style="ellipse;whiteSpace=wrap;html=1;align=center;strokeColor=#b46504;fillColor=#fad7ac;fontSize=21;" parent="1" vertex="1">
          <mxGeometry x="-71.75" y="2901.5" width="160" height="70" as="geometry" />
        </mxCell>
        <mxCell id="EnzNmzZ9sg0yeRbbBtvd-1" value="type" style="html=1;dashed=0;whiteSpace=wrap;strokeColor=#23445d;fillColor=#bac8d3;fontSize=30;" vertex="1" parent="1">
          <mxGeometry x="460" y="2952.5" width="133.5" height="65" as="geometry" />
        </mxCell>
        <mxCell id="EnzNmzZ9sg0yeRbbBtvd-2" value="" style="endArrow=none;html=1;rounded=0;strokeColor=#23445d;fontColor=#393C56;fillColor=#bac8d3;entryX=0.25;entryY=0;entryDx=0;entryDy=0;exitX=0.5;exitY=1;exitDx=0;exitDy=0;" edge="1" parent="1" source="EnzNmzZ9sg0yeRbbBtvd-1" target="jx9qQstsAjwb39KxPT1k-381">
          <mxGeometry width="50" height="50" relative="1" as="geometry">
            <mxPoint x="614.82" y="2909.7" as="sourcePoint" />
            <mxPoint x="597.82" y="3127.7" as="targetPoint" />
          </mxGeometry>
        </mxCell>
        <mxCell id="EnzNmzZ9sg0yeRbbBtvd-3" value="typeID" style="ellipse;whiteSpace=wrap;html=1;align=center;fontSize=21;" vertex="1" parent="1">
          <mxGeometry x="270" y="2877.5" width="160" height="70" as="geometry" />
        </mxCell>
        <mxCell id="EnzNmzZ9sg0yeRbbBtvd-4" value="userType" style="ellipse;whiteSpace=wrap;html=1;align=center;fontSize=21;" vertex="1" parent="1">
          <mxGeometry x="446.75" y="2832.5" width="160" height="70" as="geometry" />
        </mxCell>
        <mxCell id="EnzNmzZ9sg0yeRbbBtvd-5" value="" style="endArrow=none;html=1;rounded=0;strokeColor=#23445d;fontColor=#393C56;fillColor=#bac8d3;entryX=0;entryY=0;entryDx=0;entryDy=0;" edge="1" parent="1" source="EnzNmzZ9sg0yeRbbBtvd-3" target="EnzNmzZ9sg0yeRbbBtvd-1">
          <mxGeometry width="50" height="50" relative="1" as="geometry">
            <mxPoint x="387.25" y="2992.5" as="sourcePoint" />
            <mxPoint x="446.25" y="3097.5" as="targetPoint" />
          </mxGeometry>
        </mxCell>
        <mxCell id="EnzNmzZ9sg0yeRbbBtvd-9" value="" style="endArrow=none;html=1;rounded=0;strokeColor=#23445d;fontColor=#393C56;fillColor=#bac8d3;entryX=0.5;entryY=0;entryDx=0;entryDy=0;exitX=0.479;exitY=0.978;exitDx=0;exitDy=0;exitPerimeter=0;" edge="1" parent="1" source="EnzNmzZ9sg0yeRbbBtvd-4" target="EnzNmzZ9sg0yeRbbBtvd-1">
          <mxGeometry width="50" height="50" relative="1" as="geometry">
            <mxPoint x="421.5" y="2944.5" as="sourcePoint" />
            <mxPoint x="470.5" y="2962.5" as="targetPoint" />
          </mxGeometry>
        </mxCell>
      </root>
    </mxGraphModel>
  </diagram>
</mxfile>
